<svg xmlns="http://www.w3.org/2000/svg" xmlns:xlink="http://www.w3.org/1999/xlink" width="529" zoomAndPan="magnify" viewBox="0 0 396.75 396.749985" height="529" preserveAspectRatio="xMidYMid meet" version="1.0"><defs><clipPath id="36e6d700ea"><path d="M 177 68.335938 L 347 68.335938 L 347 308 L 177 308 Z M 177 68.335938 " clip-rule="nonzero"/></clipPath><clipPath id="7c495ca35e"><path d="M 28.4375 137 L 209 137 L 209 327 L 28.4375 327 Z M 28.4375 137 " clip-rule="nonzero"/></clipPath><clipPath id="dad552315c"><path d="M 232.132812 221.351562 L 356.679688 221.351562 L 356.679688 310 L 232.132812 310 Z M 232.132812 221.351562 " clip-rule="nonzero"/></clipPath><clipPath id="ddf15da98e"><path d="M 237.253906 234 L 356.679688 234 L 356.679688 312.71875 L 237.253906 312.71875 Z M 237.253906 234 " clip-rule="nonzero"/></clipPath><clipPath id="ef325a9dd2"><path d="M 202.246094 304.179688 L 248 304.179688 L 248 328.265625 L 202.246094 328.265625 Z M 202.246094 304.179688 " clip-rule="nonzero"/></clipPath></defs><path fill="#ffefd1" d="M 344.933594 191.035156 C 303.382812 110.199219 282.601562 69.785156 282.601562 69.785156 C 267.820312 101.199219 204.140625 104.378906 178.855469 143.21875 C 207.320312 251.945312 221.546875 306.308594 221.546875 306.308594 C 260.644531 241.292969 322.082031 239.695312 344.933594 191.035156 " fill-opacity="1" fill-rule="evenodd"/><g clip-path="url(#36e6d700ea)"><path fill="#4f1f15" d="M 283.738281 69.199219 L 346.074219 190.453125 C 346.246094 190.792969 346.265625 191.203125 346.09375 191.574219 C 334.976562 215.25 314.996094 227.855469 292.847656 241.832031 C 269.105469 256.8125 242.835938 273.386719 222.644531 306.96875 C 222.480469 307.242188 222.210938 307.460938 221.867188 307.546875 C 221.1875 307.722656 220.492188 307.3125 220.316406 306.628906 C 206.453125 253.683594 193.542969 195.296875 177.621094 143.539062 C 177.535156 143.203125 177.582031 142.835938 177.789062 142.523438 C 190.949219 122.300781 214.175781 111.683594 235.722656 101.832031 C 255.808594 92.648438 274.40625 84.148438 281.425781 69.289062 C 281.539062 69.019531 281.742188 68.792969 282.019531 68.648438 C 282.644531 68.328125 283.414062 68.574219 283.738281 69.199219 Z M 343.511719 191.058594 L 282.597656 72.570312 C 274.503906 86.910156 256.335938 95.214844 236.78125 104.152344 C 215.730469 113.777344 193.054688 124.148438 180.234375 143.449219 L 222.027344 303.09375 C 242.304688 270.703125 268.109375 254.417969 291.488281 239.671875 C 313.125 226.019531 332.660156 213.6875 343.511719 191.058594 " fill-opacity="1" fill-rule="evenodd"/></g><path fill="#ffefd1" d="M 178.855469 143.21875 C 207.320312 251.945312 221.546875 306.308594 221.546875 306.308594 C 195.160156 263.945312 127.453125 277.074219 95.601562 262.335938 C 95.601562 262.335938 82.507812 211.671875 56.324219 110.34375 C 94.769531 134.410156 140.671875 108.777344 178.855469 143.21875 " fill-opacity="1" fill-rule="evenodd"/><path fill="#4f1f15" d="M 218.550781 299.886719 L 177.71875 143.921875 C 157.242188 125.628906 134.386719 124.777344 111.699219 123.933594 C 93.4375 123.253906 75.277344 122.578125 58.332031 113.023438 L 96.683594 261.425781 C 107.503906 266.257812 122.527344 267.980469 138.605469 269.824219 C 167.613281 273.144531 199.996094 276.859375 218.550781 299.886719 Z M 180.109375 142.972656 L 222.785156 305.988281 C 222.964844 306.671875 222.550781 307.371094 221.867188 307.546875 C 221.320312 307.691406 220.75 307.449219 220.464844 306.984375 C 203.558594 279.835938 169.011719 275.878906 138.316406 272.363281 C 121.757812 270.46875 106.300781 268.695312 95.066406 263.496094 C 94.683594 263.320312 94.429688 262.976562 94.351562 262.589844 L 55.089844 110.664062 C 54.910156 109.984375 55.320312 109.285156 56.003906 109.109375 C 56.378906 109.011719 56.757812 109.09375 57.054688 109.296875 C 74.160156 119.984375 92.914062 120.679688 111.789062 121.378906 C 135.046875 122.246094 158.480469 123.117188 179.710938 142.265625 C 179.925781 142.460938 180.058594 142.707031 180.109375 142.972656 " fill-opacity="1" fill-rule="evenodd"/><path fill="#ffefd1" d="M 221.160156 304.832031 L 222.507812 306.738281 C 221.050781 307.105469 219.628906 307.582031 218.257812 308.175781 L 218.257812 308.171875 C 212.121094 299.3125 203.789062 293.402344 194.316406 289.304688 C 162.949219 275.757812 124.066406 282.078125 92.398438 267.03125 C 92.398438 267.03125 77.742188 216.867188 48.425781 116.535156 L 58.652344 119.355469 L 95.601562 262.335938 C 127.453125 277.074219 195.160156 263.945312 221.546875 306.308594 L 221.160156 304.832031 " fill-opacity="1" fill-rule="evenodd"/><path fill="#4f1f15" d="M 218.714844 306.609375 C 219.121094 306.449219 219.527344 306.300781 219.9375 306.164062 C 202.847656 279.757812 168.699219 275.84375 138.316406 272.363281 C 121.757812 270.46875 106.300781 268.695312 95.066406 263.496094 C 94.734375 263.339844 94.46875 263.042969 94.367188 262.65625 L 57.601562 120.394531 L 50.292969 118.375 L 93.460938 266.121094 C 109.511719 273.605469 127.515625 275.640625 145.40625 277.660156 C 162.492188 279.59375 179.488281 281.511719 194.816406 288.136719 C 199.65625 290.226562 204.199219 292.777344 208.308594 295.9375 C 212.1875 298.910156 215.695312 302.429688 218.714844 306.609375 Z M 222.210938 304.097656 L 223.558594 306.003906 C 223.714844 306.226562 223.785156 306.484375 223.785156 306.738281 L 223.789062 306.738281 C 223.789062 307.371094 223.332031 307.898438 222.730469 308 C 222.058594 308.171875 221.398438 308.363281 220.753906 308.582031 C 220.066406 308.816406 219.402344 309.070312 218.761719 309.34375 C 218.191406 309.59375 217.542969 309.390625 217.207031 308.898438 C 214.21875 304.585938 210.691406 300.988281 206.757812 297.96875 C 202.808594 294.933594 198.445312 292.480469 193.808594 290.476562 C 178.84375 284.011719 162.035156 282.109375 145.125 280.203125 C 126.828125 278.136719 108.414062 276.058594 91.855469 268.1875 C 91.488281 268.015625 91.242188 267.691406 91.15625 267.328125 L 47.199219 116.890625 C 47.003906 116.214844 47.394531 115.503906 48.070312 115.308594 C 48.304688 115.238281 48.542969 115.242188 48.765625 115.304688 L 58.992188 118.125 C 59.460938 118.253906 59.796875 118.632812 59.898438 119.074219 L 96.683594 261.425781 C 107.503906 266.257812 122.527344 267.980469 138.605469 269.824219 C 169.09375 273.316406 203.304688 277.238281 221.273438 303.5625 C 221.648438 303.59375 221.992188 303.792969 222.210938 304.097656 " fill-opacity="1" fill-rule="evenodd"/><path fill="#ffefd1" d="M 214.722656 310.035156 C 185.460938 279.917969 119.597656 288.9375 82.789062 269.273438 L 40.523438 124.539062 L 51.433594 126.832031 L 92.398438 267.03125 C 124.066406 282.078125 162.953125 275.757812 194.316406 289.304688 C 203.789062 293.402344 212.121094 299.3125 218.257812 308.171875 C 218.113281 308.203125 214.875 309.835938 214.722656 310.035156 " fill-opacity="1" fill-rule="evenodd"/><path fill="#4f1f15" d="M 140.679688 282.753906 C 169.023438 287.054688 197.722656 291.410156 214.925781 308.429688 L 215.390625 308.175781 C 215.691406 308.015625 216.023438 307.847656 216.34375 307.6875 C 213.546875 303.90625 210.316406 300.699219 206.757812 297.96875 C 202.816406 294.9375 198.453125 292.492188 193.808594 290.484375 L 193.8125 290.476562 C 178.84375 284.011719 162.035156 282.113281 145.125 280.203125 C 126.828125 278.136719 108.414062 276.058594 91.855469 268.1875 C 91.535156 268.035156 91.277344 267.753906 91.175781 267.386719 L 50.421875 127.925781 L 42.347656 126.226562 L 83.863281 268.394531 C 99.269531 276.46875 119.875 279.597656 140.679688 282.753906 Z M 213.808594 310.925781 C 197.300781 293.933594 168.613281 289.582031 140.300781 285.285156 C 119.074219 282.0625 98.050781 278.871094 82.1875 270.398438 C 81.875 270.230469 81.660156 269.945312 81.566406 269.628906 L 39.296875 124.894531 C 39.101562 124.21875 39.492188 123.507812 40.167969 123.316406 C 40.375 123.253906 40.585938 123.25 40.78125 123.289062 L 51.691406 125.582031 C 52.191406 125.6875 52.5625 126.066406 52.675781 126.53125 L 93.460938 266.121094 C 109.511719 273.605469 127.515625 275.640625 145.410156 277.660156 C 162.492188 279.59375 179.488281 281.511719 194.816406 288.136719 L 194.816406 288.132812 C 199.644531 290.214844 204.1875 292.769531 208.308594 295.9375 C 212.445312 299.109375 216.160156 302.902344 219.308594 307.449219 C 219.707031 308.027344 219.5625 308.820312 218.980469 309.222656 C 218.839844 309.320312 218.683594 309.386719 218.519531 309.421875 C 218.507812 309.425781 217.484375 309.957031 216.582031 310.4375 C 216.070312 310.707031 215.820312 310.703125 215.75 310.796875 C 215.328125 311.363281 214.53125 311.484375 213.964844 311.0625 C 213.90625 311.019531 213.855469 310.972656 213.808594 310.925781 " fill-opacity="1" fill-rule="evenodd"/><path fill="#ffefd1" d="M 211.324219 312.632812 L 211.332031 312.632812 C 212.609375 311.460938 214.011719 310.433594 215.5 309.566406 C 215.078125 309.796875 214.769531 309.976562 214.722656 310.035156 C 185.460938 279.917969 119.597656 288.9375 82.789062 269.273438 L 42.867188 132.570312 L 36.757812 131.238281 C 36.757812 131.238281 49.566406 179.910156 75.179688 277.25 C 96.773438 293.949219 176.042969 282.433594 211.324219 312.632812 " fill-opacity="1" fill-rule="evenodd"/><path fill="#4f1f15" d="M 211.308594 310.953125 C 211.71875 310.609375 212.140625 310.277344 212.574219 309.960938 L 212.722656 309.847656 C 196.0625 293.75 168.007812 289.488281 140.300781 285.285156 C 119.074219 282.0625 98.050781 278.871094 82.1875 270.398438 C 81.875 270.230469 81.660156 269.945312 81.566406 269.628906 L 41.855469 133.660156 L 38.523438 132.929688 L 76.304688 276.496094 C 85.335938 283.160156 104.523438 285.121094 126.242188 287.34375 C 156.074219 290.398438 190.601562 293.933594 211.308594 310.953125 Z M 211.183594 313.90625 L 211.175781 313.90625 C 210.933594 313.875 210.695312 313.773438 210.496094 313.605469 C 190.5 296.492188 155.855469 292.945312 125.984375 289.890625 C 103.644531 287.601562 83.929688 285.582031 74.449219 278.296875 C 74.210938 278.132812 74.027344 277.882812 73.945312 277.578125 L 35.539062 131.628906 C 35.472656 131.421875 35.457031 131.195312 35.503906 130.96875 C 35.65625 130.277344 36.335938 129.835938 37.027344 129.984375 L 43.136719 131.320312 L 43.136719 131.324219 C 43.582031 131.421875 43.957031 131.75 44.09375 132.214844 L 83.863281 268.394531 C 99.269531 276.46875 119.875 279.597656 140.679688 282.753906 C 169.023438 287.054688 197.71875 291.410156 214.925781 308.425781 C 215.523438 308.121094 216.265625 308.335938 216.605469 308.925781 C 216.960938 309.535156 216.753906 310.316406 216.136719 310.671875 C 215.910156 310.804688 215.683594 310.941406 215.457031 311.085938 L 215.359375 311.144531 C 214.925781 311.421875 214.5 311.714844 214.082031 312.023438 C 213.445312 312.492188 212.828125 312.996094 212.234375 313.539062 C 211.96875 313.804688 211.585938 313.953125 211.183594 313.90625 " fill-opacity="1" fill-rule="evenodd"/><path fill="#ffefd1" d="M 212.671875 311.492188 C 212.78125 311.402344 212.898438 311.316406 213.011719 311.230469 C 212.898438 311.316406 212.78125 311.402344 212.671875 311.492188 Z M 207.09375 317.855469 C 179.15625 294.867188 96.1875 298.101562 69.523438 281.839844 C 45.328125 184.070312 33.230469 135.1875 33.230469 135.1875 L 38.207031 136.757812 L 75.179688 277.25 C 96.773438 293.949219 176.042969 282.433594 211.324219 312.632812 L 211.332031 312.632812 C 209.699219 314.128906 208.269531 315.871094 207.09375 317.855469 " fill-opacity="1" fill-rule="evenodd"/><path fill="#4f1f15" d="M 129.292969 294.78125 C 159.023438 299.105469 190.664062 303.710938 206.773438 315.976562 C 207.167969 315.390625 207.585938 314.828125 208.027344 314.285156 C 208.472656 313.734375 208.9375 313.210938 209.421875 312.710938 C 189.277344 296.367188 155.328125 292.890625 125.984375 289.890625 C 103.644531 287.601562 83.929688 285.582031 74.449219 278.296875 C 74.210938 278.132812 74.027344 277.882812 73.945312 277.578125 L 37.152344 137.769531 L 35.019531 137.09375 L 70.636719 281.015625 C 82.464844 287.96875 105.246094 291.285156 129.292969 294.78125 Z M 206.230469 318.796875 C 191.046875 306.351562 159 301.6875 128.933594 297.3125 C 104.3125 293.730469 81.003906 290.339844 68.855469 282.929688 C 68.558594 282.75 68.359375 282.460938 68.285156 282.148438 L 31.988281 135.488281 C 31.824219 134.804688 32.238281 134.117188 32.925781 133.945312 C 33.164062 133.890625 33.402344 133.898438 33.613281 133.96875 L 38.59375 135.535156 C 39.054688 135.683594 39.375 136.066406 39.464844 136.511719 L 76.304688 276.496094 C 85.335938 283.160156 104.523438 285.121094 126.242188 287.34375 C 156.203125 290.414062 190.902344 293.964844 211.578125 311.175781 C 211.613281 310.929688 211.722656 310.691406 211.894531 310.5 L 211.886719 310.484375 L 212.230469 310.21875 L 212.234375 310.21875 C 212.792969 309.789062 213.59375 309.894531 214.019531 310.453125 C 214.449219 311.007812 214.34375 311.808594 213.789062 312.238281 L 213.792969 312.242188 L 213.457031 312.496094 L 213.445312 312.484375 C 213.1875 312.625 212.890625 312.667969 212.613281 312.617188 C 212.613281 312.671875 212.609375 312.726562 212.601562 312.785156 C 212.5625 313.121094 212.394531 313.410156 212.15625 313.609375 C 211.390625 314.320312 210.667969 315.082031 210.007812 315.894531 C 209.355469 316.703125 208.746094 317.574219 208.195312 318.503906 C 207.835938 319.113281 207.054688 319.316406 206.441406 318.953125 C 206.367188 318.910156 206.296875 318.859375 206.230469 318.796875 " fill-opacity="1" fill-rule="evenodd"/><path fill="#00bfa8" d="M 204.261719 325.144531 L 204.257812 325.148438 C 189.464844 308.988281 98.433594 300.304688 66.902344 289.6875 C 66.902344 289.6875 55.519531 239.519531 30.1875 138.335938 L 34.316406 139.5625 L 69.523438 281.839844 C 96.1875 298.101562 179.15625 294.867188 207.09375 317.855469 C 205.820312 320.003906 204.851562 322.433594 204.261719 325.144531 " fill-opacity="1" fill-rule="evenodd"/><g clip-path="url(#7c495ca35e)"><path fill="#4f1f15" d="M 120.480469 300.042969 C 154.585938 306.3125 191.765625 313.148438 203.558594 322.761719 C 203.753906 322.121094 203.972656 321.492188 204.210938 320.882812 C 204.578125 319.933594 204.992188 319.03125 205.449219 318.175781 C 189.960938 306.191406 158.492188 301.613281 128.933594 297.3125 C 104.328125 293.734375 81.039062 290.347656 68.882812 282.949219 C 68.59375 282.777344 68.371094 282.496094 68.285156 282.148438 L 33.25 140.578125 L 31.96875 140.199219 C 55.226562 233.144531 66.542969 282.382812 67.988281 288.699219 C 79.800781 292.5625 99.558594 296.195312 120.480469 300.042969 Z M 204.882812 326.257812 C 204.386719 326.542969 203.742188 326.464844 203.332031 326.027344 L 203.28125 325.96875 C 194.25 316.203125 155.460938 309.070312 120.019531 302.554688 C 98.597656 298.617188 78.394531 294.902344 66.496094 290.898438 C 66.058594 290.75 65.75 290.386719 65.65625 289.964844 C 65.621094 289.820312 54.292969 239.90625 28.949219 138.644531 C 28.773438 137.960938 29.191406 137.265625 29.878906 137.09375 C 30.128906 137.03125 30.382812 137.046875 30.609375 137.128906 L 34.675781 138.339844 C 35.125 138.46875 35.449219 138.832031 35.554688 139.253906 L 70.636719 281.015625 C 82.464844 287.96875 105.246094 291.285156 129.292969 294.78125 C 159.734375 299.207031 192.179688 303.929688 207.90625 316.867188 C 208.398438 317.273438 208.511719 317.972656 208.195312 318.503906 C 207.578125 319.542969 207.042969 320.640625 206.59375 321.804688 C 206.152344 322.925781 205.792969 324.132812 205.511719 325.414062 C 205.433594 325.789062 205.195312 326.089844 204.882812 326.257812 " fill-opacity="1" fill-rule="evenodd"/></g><path fill="#ffefd1" d="M 342.9375 194.980469 L 348.148438 204.191406 C 314.964844 244.878906 250.253906 263.304688 227.464844 305.964844 C 225.632812 306.089844 223.820312 306.390625 222.0625 306.859375 L 221.855469 305.816406 C 259.871094 243.085938 318.746094 239.710938 342.9375 194.980469 " fill-opacity="1" fill-rule="evenodd"/><path fill="#4f1f15" d="M 346.605469 204.058594 L 342.945312 197.585938 C 331.421875 217.484375 313.035156 229.085938 292.84375 241.832031 C 269.53125 256.542969 243.789062 272.796875 223.753906 305.164062 C 224.011719 305.113281 224.269531 305.066406 224.53125 305.023438 C 225.246094 304.90625 225.960938 304.808594 226.679688 304.742188 C 239.386719 281.484375 264.257812 265.464844 289.664062 249.101562 C 310.503906 235.679688 331.703125 222.027344 346.605469 204.058594 Z M 344.074219 194.398438 L 349.257812 203.558594 C 349.535156 204.042969 349.457031 204.632812 349.109375 205.03125 C 333.921875 223.640625 312.296875 237.566406 291.046875 251.253906 C 265.695312 267.578125 240.878906 283.5625 228.59375 306.5625 C 228.375 306.96875 227.976562 307.207031 227.550781 307.234375 L 227.550781 307.238281 C 226.667969 307.300781 225.792969 307.402344 224.941406 307.542969 C 224.082031 307.683594 223.230469 307.871094 222.386719 308.09375 C 221.707031 308.273438 221.003906 307.867188 220.824219 307.183594 L 220.597656 306.058594 C 220.527344 305.695312 220.617188 305.335938 220.820312 305.058594 C 241.28125 271.355469 267.640625 254.714844 291.484375 239.671875 C 312.042969 226.695312 330.703125 214.917969 341.8125 194.375 C 342.144531 193.753906 342.921875 193.519531 343.542969 193.859375 C 343.78125 193.984375 343.960938 194.175781 344.074219 194.398438 " fill-opacity="1" fill-rule="evenodd"/><path fill="#ffefd1" d="M 227.460938 305.964844 C 249.871094 264.015625 312.816406 245.5 346.460938 206.207031 L 349.109375 211.664062 C 322.214844 248.777344 253.222656 264.566406 230.371094 305.902344 C 229.402344 305.875 228.429688 305.894531 227.460938 305.964844 " fill-opacity="1" fill-rule="evenodd"/><path fill="#4f1f15" d="M 291.046875 251.25 C 269.792969 264.941406 248.917969 278.386719 235.480469 295.925781 C 249.066406 278.574219 270.777344 265.902344 292.289062 253.339844 C 313.828125 240.769531 335.164062 228.308594 347.621094 211.527344 L 346.15625 208.503906 C 331.1875 225.398438 310.953125 238.433594 291.046875 251.25 Z M 226.386719 305.277344 C 239.003906 281.726562 264.0625 265.585938 289.664062 249.101562 C 309.988281 236.011719 330.660156 222.699219 345.492188 205.378906 C 345.949219 204.839844 346.757812 204.78125 347.292969 205.238281 C 347.429688 205.359375 347.535156 205.5 347.613281 205.652344 L 350.257812 211.109375 C 350.46875 211.546875 350.410156 212.046875 350.140625 212.414062 C 337.4375 229.949219 315.609375 242.6875 293.582031 255.550781 C 268.679688 270.085938 243.507812 284.78125 231.492188 306.515625 C 231.242188 306.976562 230.75 307.21875 230.261719 307.175781 C 229.816406 307.164062 229.378906 307.164062 228.9375 307.171875 C 228.511719 307.183594 228.046875 307.203125 227.550781 307.238281 C 226.84375 307.285156 226.234375 306.753906 226.1875 306.046875 C 226.167969 305.765625 226.246094 305.5 226.386719 305.277344 " fill-opacity="1" fill-rule="evenodd"/><path fill="#ffefd1" d="M 347.324219 214.007812 L 347.328125 214.015625 C 349.367188 217.613281 351.136719 220.734375 351.136719 220.734375 C 322.8125 255.859375 256.199219 267.660156 237.046875 306.859375 C 234.925781 306.300781 232.75 305.984375 230.574219 305.90625 C 230.890625 305.4375 231.160156 304.917969 231.367188 304.347656 C 231.484375 304.023438 231.71875 303.636719 231.980469 303.171875 C 255.765625 264.710938 319.925781 248.648438 347.324219 214.007812 " fill-opacity="1" fill-rule="evenodd"/><path fill="#4f1f15" d="M 349.589844 220.601562 L 347.132812 216.261719 C 334.15625 231.859375 313.953125 243.652344 293.585938 255.546875 C 269.730469 269.476562 245.632812 283.546875 233.089844 303.804688 L 232.964844 304.023438 C 232.800781 304.320312 232.648438 304.578125 232.578125 304.761719 C 233.066406 304.808594 233.546875 304.867188 234.027344 304.9375 C 234.804688 305.050781 235.582031 305.199219 236.359375 305.375 C 247.253906 284.128906 271.722656 270.976562 296.371094 257.734375 C 316.5625 246.886719 336.871094 235.972656 349.589844 220.601562 Z M 348.445312 213.390625 C 349.746094 215.417969 351.035156 217.964844 352.246094 220.105469 C 352.511719 220.570312 352.449219 221.136719 352.128906 221.535156 L 352.125 221.539062 C 339.117188 237.667969 318.289062 248.863281 297.582031 259.988281 C 272.945312 273.222656 248.484375 286.367188 238.195312 307.421875 C 237.914062 308 237.25 308.269531 236.652344 308.078125 C 235.671875 307.820312 234.671875 307.621094 233.65625 307.46875 C 232.601562 307.316406 231.558594 307.21875 230.527344 307.183594 C 229.824219 307.15625 229.273438 306.566406 229.296875 305.863281 C 229.308594 305.609375 229.390625 305.371094 229.523438 305.179688 C 229.644531 305.003906 229.761719 304.800781 229.878906 304.574219 C 229.984375 304.359375 230.085938 304.136719 230.167969 303.910156 C 230.296875 303.546875 230.503906 303.183594 230.746094 302.761719 L 230.871094 302.539062 L 230.929688 302.445312 C 243.824219 281.640625 268.183594 267.417969 292.292969 253.335938 C 313.101562 241.1875 333.722656 229.144531 346.324219 213.214844 C 346.757812 212.664062 347.558594 212.570312 348.113281 213.007812 C 348.25 213.113281 348.355469 213.242188 348.4375 213.382812 L 348.445312 213.390625 " fill-opacity="1" fill-rule="evenodd"/><path fill="#ffefd1" d="M 235.175781 306.433594 C 235.304688 306.457031 235.433594 306.484375 235.5625 306.511719 C 235.433594 306.484375 235.304688 306.457031 235.175781 306.433594 Z M 234.21875 306.261719 C 234.359375 306.285156 234.5 306.308594 234.644531 306.332031 C 234.5 306.308594 234.359375 306.285156 234.21875 306.261719 Z M 241.4375 308.402344 L 241.433594 308.402344 C 240.015625 307.765625 238.542969 307.253906 237.046875 306.859375 C 255.851562 268.371094 320.394531 256.296875 349.542969 222.628906 L 355.40625 231.085938 C 329.550781 260.121094 267.523438 268.800781 241.4375 308.402344 " fill-opacity="1" fill-rule="evenodd"/><g clip-path="url(#dad552315c)"><path fill="#4f1f15" d="M 239.703125 306.339844 C 240.128906 306.488281 240.546875 306.648438 240.96875 306.816406 C 255.886719 284.867188 281.617188 272.476562 305.960938 260.757812 C 324.664062 251.75 342.539062 243.144531 353.777344 230.976562 L 349.421875 224.695312 C 336.335938 239.160156 316.90625 249.601562 297.578125 259.988281 C 273.480469 272.933594 249.546875 285.796875 238.886719 306.0625 C 239.160156 306.152344 239.429688 306.242188 239.703125 306.339844 Z M 241.882812 309.597656 C 241.554688 309.71875 241.210938 309.699219 240.914062 309.570312 C 240.242188 309.265625 239.558594 308.996094 238.863281 308.75 C 238.167969 308.503906 237.449219 308.289062 236.722656 308.09375 C 236.414062 308.015625 236.160156 307.828125 235.996094 307.585938 C 235.792969 307.699219 235.558594 307.761719 235.3125 307.75 L 235.3125 307.761719 L 234.925781 307.6875 L 234.929688 307.671875 C 234.878906 307.652344 234.832031 307.628906 234.789062 307.609375 C 234.667969 307.621094 234.546875 307.617188 234.421875 307.59375 L 234.011719 307.523438 C 233.316406 307.410156 232.847656 306.753906 232.960938 306.054688 C 233.070312 305.363281 233.726562 304.890625 234.421875 305.003906 L 234.863281 305.074219 C 234.996094 305.097656 235.125 305.140625 235.238281 305.199219 C 235.292969 305.195312 235.355469 305.191406 235.414062 305.195312 L 235.417969 305.175781 L 235.820312 305.257812 L 235.816406 305.273438 C 235.988281 305.335938 236.140625 305.4375 236.269531 305.558594 C 247.113281 284.203125 271.652344 271.015625 296.371094 257.734375 C 316.03125 247.167969 335.8125 236.542969 348.578125 221.796875 C 349.039062 221.261719 349.84375 221.207031 350.378906 221.664062 C 350.472656 221.746094 350.546875 221.832031 350.613281 221.929688 L 356.457031 230.359375 C 356.796875 230.855469 356.742188 231.503906 356.359375 231.933594 C 344.839844 244.878906 326.390625 253.757812 307.070312 263.058594 C 282.703125 274.785156 256.933594 287.195312 242.503906 309.101562 C 242.347656 309.339844 242.128906 309.503906 241.882812 309.597656 " fill-opacity="1" fill-rule="evenodd"/></g><path fill="#00bfa8" d="M 239.425781 307.59375 C 239.25 307.535156 239.078125 307.46875 238.902344 307.414062 L 238.898438 307.414062 C 239.078125 307.472656 239.25 307.535156 239.425781 307.59375 Z M 240.367188 307.949219 C 240.144531 307.859375 239.917969 307.773438 239.691406 307.691406 C 239.917969 307.773438 240.144531 307.859375 240.367188 307.949219 Z M 241.289062 308.339844 C 241.042969 308.230469 240.800781 308.128906 240.558594 308.027344 C 240.800781 308.128906 241.042969 308.230469 241.289062 308.339844 Z M 246.492188 311.351562 C 258.566406 296.171875 275.582031 284.183594 297.554688 275.378906 C 332.167969 258.78125 351.378906 247.609375 355.191406 241.867188 L 351.179688 235.367188 C 323.324219 261.082031 266.195312 270.820312 241.4375 308.402344 L 241.433594 308.402344 C 243.210938 309.195312 244.90625 310.175781 246.492188 311.351562 " fill-opacity="1" fill-rule="evenodd"/><g clip-path="url(#ddf15da98e)"><path fill="#4f1f15" d="M 269.050781 292.019531 C 260.636719 297.941406 253.453125 304.652344 247.492188 312.148438 C 247.066406 312.679688 246.285156 312.789062 245.730469 312.378906 C 244.988281 311.828125 244.214844 311.316406 243.417969 310.851562 C 242.59375 310.375 241.761719 309.945312 240.914062 309.570312 C 240.867188 309.546875 240.824219 309.523438 240.78125 309.496094 L 240.773438 309.507812 L 240.425781 309.355469 L 240.078125 309.210938 L 240.085938 309.195312 C 240.015625 309.183594 239.953125 309.160156 239.890625 309.136719 L 239.25 308.890625 L 239.261719 308.863281 C 239.175781 308.847656 239.089844 308.828125 239.007812 308.796875 L 238.488281 308.625 C 237.824219 308.398438 237.464844 307.671875 237.691406 307.003906 C 237.914062 306.332031 238.644531 305.976562 239.3125 306.203125 L 239.578125 306.292969 C 239.636719 306.3125 239.554688 306.285156 239.722656 306.347656 L 239.855469 306.394531 C 239.949219 306.429688 240.039062 306.472656 240.121094 306.523438 L 240.128906 306.488281 C 240.375 306.582031 240.605469 306.671875 240.839844 306.761719 L 240.964844 306.820312 C 255.882812 284.867188 281.613281 272.476562 305.960938 260.753906 C 322.84375 252.625 339.054688 244.820312 350.316406 234.425781 C 350.375 234.375 350.4375 234.324219 350.507812 234.28125 C 351.109375 233.910156 351.894531 234.097656 352.265625 234.695312 L 356.234375 241.132812 C 356.527344 241.546875 356.554688 242.121094 356.253906 242.570312 C 352.320312 248.507812 332.953125 259.8125 298.171875 276.5 C 298.125 276.523438 298.078125 276.546875 298.027344 276.566406 C 287.140625 280.929688 277.476562 286.082031 269.050781 292.019531 Z M 246.246094 309.617188 C 252.207031 302.308594 259.320312 295.746094 267.578125 289.929688 C 276.164062 283.878906 285.992188 278.640625 297.066406 274.203125 C 330.152344 258.328125 349.011719 247.527344 353.652344 241.800781 L 350.898438 237.34375 C 339.441406 247.46875 323.574219 255.109375 307.066406 263.054688 C 283.160156 274.570312 257.890625 286.734375 243.324219 307.890625 C 243.789062 308.128906 244.246094 308.378906 244.695312 308.640625 C 245.21875 308.945312 245.738281 309.273438 246.246094 309.617188 " fill-opacity="1" fill-rule="evenodd"/></g><path fill="#00bfa8" d="M 224.742188 306.285156 C 232.84375 305.097656 240.089844 306.789062 246.492188 311.351562 C 246.492188 311.351562 246.414062 312.582031 246.265625 315.035156 C 228.144531 307.070312 212.671875 311.492188 208.320312 326.988281 C 208.320312 326.988281 206.964844 326.375 204.257812 325.148438 C 207.328125 314.339844 214.152344 308.050781 224.742188 306.285156 " fill-opacity="1" fill-rule="evenodd"/><g clip-path="url(#ef325a9dd2)"><path fill="#4f1f15" d="M 235.964844 307.90625 C 232.5 307.101562 228.820312 306.980469 224.933594 307.542969 C 215.238281 309.171875 208.859375 314.804688 205.800781 324.445312 L 207.527344 325.226562 C 207.785156 324.464844 208.066406 323.734375 208.375 323.03125 C 210.933594 317.21875 215.246094 313.289062 220.757812 311.320312 C 226.183594 309.382812 232.753906 309.371094 239.902344 311.378906 C 241.605469 311.855469 243.34375 312.449219 245.101562 313.15625 L 245.171875 311.988281 C 242.277344 310.027344 239.210938 308.664062 235.964844 307.90625 Z M 224.5625 305.015625 C 228.769531 304.402344 232.761719 304.535156 236.546875 305.414062 C 240.328125 306.300781 243.894531 307.929688 247.230469 310.308594 C 247.601562 310.574219 247.789062 311.003906 247.765625 311.425781 L 247.542969 315.109375 C 247.503906 315.8125 246.894531 316.351562 246.191406 316.308594 C 246.035156 316.300781 245.886719 316.261719 245.75 316.203125 C 243.519531 315.226562 241.335938 314.433594 239.214844 313.839844 C 232.585938 311.980469 226.546875 311.96875 221.617188 313.730469 C 216.769531 315.460938 212.96875 318.929688 210.71875 324.058594 L 210.714844 324.0625 C 210.265625 325.089844 209.875 326.179688 209.550781 327.332031 C 209.359375 328.015625 208.65625 328.410156 207.976562 328.21875 C 207.914062 328.199219 207.851562 328.179688 207.796875 328.152344 L 203.730469 326.316406 C 203.132812 326.046875 202.84375 325.371094 203.035156 324.761719 C 206.261719 313.457031 213.425781 306.878906 224.53125 305.023438 L 224.5625 305.015625 " fill-opacity="1" fill-rule="evenodd"/></g><path fill="#4f1f15" d="M 71.546875 127.335938 C 71.136719 127.105469 70.992188 126.585938 71.222656 126.175781 C 71.453125 125.761719 71.972656 125.617188 72.382812 125.847656 C 79.070312 129.601562 92.183594 130.113281 107.113281 130.695312 C 130.769531 131.613281 158.933594 132.710938 174.375 147.210938 C 174.71875 147.535156 174.734375 148.070312 174.410156 148.414062 C 174.089844 148.757812 173.550781 148.773438 173.207031 148.453125 C 158.226562 134.386719 130.417969 133.304688 107.050781 132.394531 C 91.898438 131.804688 78.585938 131.285156 71.546875 127.335938 " fill-opacity="1" fill-rule="evenodd"/><path fill="#4f1f15" d="M 73.363281 134.914062 C 72.953125 134.683594 72.804688 134.164062 73.035156 133.753906 C 73.265625 133.34375 73.785156 133.195312 74.195312 133.425781 C 80.886719 137.179688 93.996094 137.691406 108.925781 138.273438 C 132.585938 139.191406 160.746094 140.289062 176.191406 154.789062 C 176.53125 155.113281 176.550781 155.652344 176.226562 155.992188 C 175.902344 156.335938 175.367188 156.351562 175.023438 156.03125 C 160.042969 141.964844 132.230469 140.882812 108.867188 139.972656 C 93.714844 139.382812 80.402344 138.863281 73.363281 134.914062 " fill-opacity="1" fill-rule="evenodd"/><path fill="#4f1f15" d="M 74.554688 143.777344 C 74.140625 143.558594 73.984375 143.042969 74.203125 142.628906 C 74.425781 142.214844 74.941406 142.058594 75.355469 142.277344 C 82.035156 145.835938 95.148438 145.972656 110.078125 146.125 C 133.738281 146.371094 161.90625 146.664062 177.355469 160.726562 C 177.703125 161.042969 177.726562 161.582031 177.410156 161.929688 C 177.09375 162.28125 176.554688 162.304688 176.207031 161.988281 C 161.234375 148.359375 133.425781 148.066406 110.0625 147.828125 C 94.910156 147.671875 81.601562 147.535156 74.554688 143.777344 " fill-opacity="1" fill-rule="evenodd"/><path fill="#4f1f15" d="M 75.949219 150.292969 C 75.53125 150.070312 75.378906 149.550781 75.601562 149.136719 C 75.820312 148.726562 76.339844 148.566406 76.753906 148.792969 C 83.441406 152.402344 96.550781 152.644531 111.480469 152.917969 C 135.140625 153.347656 163.308594 153.863281 178.753906 168.046875 C 179.097656 168.363281 179.121094 168.90625 178.804688 169.25 C 178.484375 169.597656 177.945312 169.617188 177.601562 169.300781 C 162.628906 155.550781 134.816406 155.042969 111.453125 154.617188 C 96.296875 154.34375 82.984375 154.097656 75.949219 150.292969 " fill-opacity="1" fill-rule="evenodd"/><path fill="#4f1f15" d="M 78.4375 157.664062 C 78.023438 157.441406 77.867188 156.921875 78.089844 156.511719 C 78.3125 156.097656 78.832031 155.941406 79.242188 156.164062 C 85.929688 159.777344 99.039062 160.015625 113.96875 160.289062 C 137.632812 160.71875 165.796875 161.234375 181.242188 175.417969 C 181.589844 175.734375 181.613281 176.277344 181.292969 176.621094 C 180.976562 176.964844 180.4375 176.988281 180.089844 176.671875 C 165.117188 162.921875 137.308594 162.414062 113.941406 161.992188 C 98.789062 161.714844 85.476562 161.46875 78.4375 157.664062 " fill-opacity="1" fill-rule="evenodd"/><path fill="#4f1f15" d="M 79.8125 164.386719 C 79.398438 164.164062 79.242188 163.648438 79.464844 163.234375 C 79.6875 162.820312 80.203125 162.664062 80.617188 162.886719 C 87.300781 166.5 100.417969 166.738281 115.34375 167.011719 C 139.003906 167.445312 167.171875 167.957031 182.617188 182.140625 C 182.964844 182.460938 182.988281 183 182.667969 183.34375 C 182.351562 183.691406 181.808594 183.714844 181.464844 183.398438 C 166.488281 169.644531 138.683594 169.136719 115.316406 168.714844 C 100.164062 168.4375 86.851562 168.195312 79.8125 164.386719 " fill-opacity="1" fill-rule="evenodd"/><path fill="#4f1f15" d="M 81.761719 171.34375 C 81.34375 171.121094 81.191406 170.601562 81.410156 170.1875 C 81.636719 169.773438 82.152344 169.617188 82.570312 169.84375 C 89.253906 173.457031 102.367188 173.695312 117.292969 173.96875 C 140.957031 174.398438 169.117188 174.910156 184.566406 189.097656 C 184.910156 189.417969 184.933594 189.953125 184.617188 190.300781 C 184.296875 190.648438 183.757812 190.667969 183.414062 190.351562 C 168.4375 176.601562 140.628906 176.097656 117.269531 175.667969 C 102.113281 175.390625 88.800781 175.152344 81.761719 171.34375 " fill-opacity="1" fill-rule="evenodd"/><path fill="#4f1f15" d="M 82.699219 176.355469 C 82.277344 176.152344 82.097656 175.640625 82.300781 175.21875 C 82.503906 174.796875 83.015625 174.617188 83.441406 174.820312 C 89.695312 177.832031 101.929688 178.660156 116.125 179.613281 C 139.640625 181.195312 168.476562 183.140625 185.414062 196.089844 C 185.785156 196.371094 185.859375 196.910156 185.570312 197.28125 C 185.289062 197.65625 184.75 197.730469 184.378906 197.441406 C 167.855469 184.804688 139.296875 182.882812 116.011719 181.316406 C 101.636719 180.347656 89.253906 179.515625 82.699219 176.355469 " fill-opacity="1" fill-rule="evenodd"/><path fill="#4f1f15" d="M 85.078125 182.488281 C 84.625 182.359375 84.359375 181.890625 84.488281 181.4375 C 84.613281 180.984375 85.085938 180.71875 85.539062 180.847656 C 98.175781 184.417969 111.980469 185.863281 126.007812 187.328125 C 146.539062 189.476562 167.539062 191.675781 186.21875 200.644531 C 186.644531 200.847656 186.824219 201.355469 186.621094 201.777344 C 186.417969 202.203125 185.910156 202.382812 185.484375 202.179688 C 167.074219 193.339844 146.222656 191.160156 125.832031 189.023438 C 111.726562 187.550781 97.84375 186.097656 85.078125 182.488281 " fill-opacity="1" fill-rule="evenodd"/><path fill="#4f1f15" d="M 86.878906 188.101562 C 86.449219 187.90625 86.257812 187.402344 86.453125 186.972656 C 86.644531 186.542969 87.148438 186.351562 87.578125 186.546875 C 98.980469 191.730469 116.050781 193.539062 133.480469 195.386719 C 153.390625 197.496094 173.769531 199.65625 187.011719 206.960938 C 187.421875 207.1875 187.574219 207.707031 187.347656 208.121094 C 187.121094 208.535156 186.601562 208.683594 186.1875 208.457031 C 173.242188 201.3125 153.042969 199.171875 133.304688 197.078125 C 115.734375 195.21875 98.519531 193.394531 86.878906 188.101562 " fill-opacity="1" fill-rule="evenodd"/><path fill="#4f1f15" d="M 88.738281 194.902344 C 88.3125 194.710938 88.121094 194.203125 88.3125 193.773438 C 88.507812 193.347656 89.011719 193.15625 89.441406 193.347656 C 100.839844 198.53125 117.914062 200.339844 135.34375 202.191406 C 155.257812 204.296875 175.628906 206.457031 188.875 213.761719 C 189.285156 213.992188 189.433594 214.511719 189.207031 214.925781 C 188.984375 215.335938 188.464844 215.488281 188.054688 215.261719 C 175.105469 208.117188 154.910156 205.976562 135.167969 203.878906 C 117.59375 202.019531 100.382812 200.195312 88.738281 194.902344 " fill-opacity="1" fill-rule="evenodd"/><path fill="#4f1f15" d="M 90.660156 201.734375 C 90.234375 201.542969 90.039062 201.035156 90.234375 200.605469 C 90.425781 200.179688 90.933594 199.988281 91.363281 200.179688 C 102.761719 205.363281 119.835938 207.171875 137.265625 209.019531 C 157.175781 211.128906 177.550781 213.289062 190.796875 220.59375 C 191.207031 220.824219 191.355469 221.34375 191.128906 221.753906 C 190.90625 222.164062 190.386719 222.320312 189.976562 222.089844 C 177.027344 214.949219 156.832031 212.804688 137.089844 210.710938 C 119.515625 208.851562 102.304688 207.027344 90.660156 201.734375 " fill-opacity="1" fill-rule="evenodd"/><path fill="#4f1f15" d="M 191.394531 225.703125 C 191.828125 225.875 192.046875 226.367188 191.875 226.804688 C 191.703125 227.246094 191.210938 227.460938 190.773438 227.289062 C 176.050781 221.527344 158.042969 219.277344 140.007812 217.019531 C 123.847656 214.996094 107.664062 212.972656 93.691406 208.414062 C 93.242188 208.269531 92.996094 207.785156 93.144531 207.339844 C 93.285156 206.890625 93.769531 206.648438 94.214844 206.792969 C 108.027344 211.296875 124.132812 213.3125 140.214844 215.324219 C 158.355469 217.597656 176.464844 219.859375 191.394531 225.703125 " fill-opacity="1" fill-rule="evenodd"/><path fill="#4f1f15" d="M 95.621094 214.820312 C 95.171875 214.679688 94.921875 214.203125 95.0625 213.753906 C 95.199219 213.304688 95.675781 213.054688 96.128906 213.191406 C 106.792969 216.527344 126.949219 219.601562 146.167969 222.535156 C 167.09375 225.726562 186.910156 228.753906 192.457031 231.835938 C 192.867188 232.066406 193.015625 232.582031 192.785156 232.992188 C 192.558594 233.402344 192.039062 233.554688 191.628906 233.324219 C 186.363281 230.398438 166.691406 227.390625 145.914062 224.222656 C 126.636719 221.28125 106.417969 218.195312 95.621094 214.820312 " fill-opacity="1" fill-rule="evenodd"/><path fill="#4f1f15" d="M 97.023438 221.015625 C 96.570312 220.886719 96.316406 220.414062 96.445312 219.960938 C 96.574219 219.511719 97.046875 219.25 97.5 219.378906 C 111.023438 223.34375 126.996094 225.746094 142.746094 228.113281 C 162 231.011719 180.917969 233.855469 194.816406 239.472656 C 195.25 239.648438 195.460938 240.148438 195.289062 240.582031 C 195.113281 241.019531 194.617188 241.230469 194.179688 241.054688 C 180.480469 235.515625 161.65625 232.683594 142.492188 229.800781 C 126.707031 227.429688 110.699219 225.019531 97.023438 221.015625 " fill-opacity="1" fill-rule="evenodd"/><path fill="#4f1f15" d="M 105.230469 252.78125 C 104.804688 252.582031 104.617188 252.074219 104.8125 251.648438 C 105.011719 251.222656 105.515625 251.035156 105.945312 251.230469 C 116.257812 256.015625 132.855469 257.867188 149.515625 259.71875 C 171.050781 262.121094 192.683594 264.53125 201.609375 273.390625 C 201.941406 273.722656 201.941406 274.261719 201.613281 274.597656 C 201.277344 274.925781 200.742188 274.929688 200.410156 274.597656 C 191.910156 266.160156 170.566406 263.78125 149.328125 261.414062 C 132.53125 259.542969 115.792969 257.675781 105.230469 252.78125 " fill-opacity="1" fill-rule="evenodd"/><path fill="#4f1f15" d="M 103.84375 245.738281 C 103.414062 245.539062 103.230469 245.03125 103.425781 244.601562 C 103.621094 244.175781 104.128906 243.988281 104.558594 244.1875 C 114.871094 248.96875 131.46875 250.820312 148.128906 252.675781 C 169.660156 255.078125 191.296875 257.488281 200.222656 266.34375 C 200.554688 266.675781 200.554688 267.21875 200.226562 267.550781 C 199.890625 267.882812 199.355469 267.886719 199.019531 267.550781 C 190.523438 259.117188 169.179688 256.738281 147.941406 254.371094 C 131.144531 252.5 114.40625 250.628906 103.84375 245.738281 " fill-opacity="1" fill-rule="evenodd"/><path fill="#4f1f15" d="M 102.140625 238.804688 C 101.710938 238.609375 101.519531 238.101562 101.714844 237.671875 C 101.910156 237.246094 102.410156 237.054688 102.84375 237.246094 C 113.160156 241.925781 129.753906 243.609375 146.410156 245.300781 C 167.949219 247.484375 189.585938 249.683594 198.511719 258.453125 C 198.84375 258.78125 198.851562 259.324219 198.519531 259.65625 C 198.191406 259.992188 197.648438 259.996094 197.316406 259.667969 C 188.816406 251.316406 167.480469 249.148438 146.242188 246.996094 C 129.441406 245.289062 112.703125 243.59375 102.140625 238.804688 " fill-opacity="1" fill-rule="evenodd"/><path fill="#4f1f15" d="M 100.515625 233.398438 C 100.082031 233.210938 99.886719 232.710938 100.074219 232.277344 C 100.261719 231.847656 100.765625 231.652344 101.195312 231.839844 C 111.5 236.367188 128.101562 237.8125 144.765625 239.265625 C 166.300781 241.144531 187.9375 243.03125 196.871094 251.679688 C 197.207031 252.007812 197.214844 252.546875 196.886719 252.886719 C 196.558594 253.21875 196.019531 253.230469 195.683594 252.898438 C 187.191406 244.679688 165.851562 242.820312 144.621094 240.96875 C 127.820312 239.503906 111.085938 238.046875 100.515625 233.398438 " fill-opacity="1" fill-rule="evenodd"/><path fill="#4f1f15" d="M 98.378906 226.996094 C 97.949219 226.808594 97.753906 226.308594 97.9375 225.875 C 98.125 225.445312 98.628906 225.246094 99.058594 225.433594 C 109.9375 230.214844 127.1875 232.152344 144.480469 234.101562 C 164.757812 236.382812 185.09375 238.667969 195.675781 245.597656 C 196.070312 245.859375 196.179688 246.382812 195.921875 246.777344 C 195.664062 247.171875 195.136719 247.285156 194.742188 247.023438 C 184.5 240.316406 164.367188 238.050781 144.292969 235.792969 C 126.871094 233.832031 109.492188 231.878906 98.378906 226.996094 " fill-opacity="1" fill-rule="evenodd"/><path fill="#4f1f15" d="M 191.484375 147.148438 C 191.191406 147.515625 190.65625 147.574219 190.289062 147.277344 C 189.925781 146.984375 189.863281 146.445312 190.160156 146.078125 C 201.34375 132.128906 225.625 120.789062 246.132812 111.21875 C 261.664062 103.964844 275.011719 97.734375 278.527344 92.351562 C 278.78125 91.957031 279.308594 91.84375 279.703125 92.101562 C 280.097656 92.355469 280.210938 92.882812 279.953125 93.28125 C 276.171875 99.070312 262.625 105.398438 246.855469 112.757812 C 226.507812 122.253906 202.425781 133.5 191.484375 147.148438 " fill-opacity="1" fill-rule="evenodd"/><path fill="#4f1f15" d="M 193.476562 153.769531 C 193.183594 154.136719 192.648438 154.191406 192.28125 153.898438 C 191.914062 153.601562 191.855469 153.066406 192.152344 152.699219 C 203.332031 138.746094 227.617188 127.40625 248.121094 117.835938 C 263.65625 110.582031 277 104.351562 280.515625 98.96875 C 280.769531 98.574219 281.300781 98.460938 281.695312 98.71875 C 282.085938 98.972656 282.199219 99.503906 281.945312 99.898438 C 278.160156 105.691406 264.613281 112.015625 248.84375 119.375 C 228.5 128.871094 204.417969 140.117188 193.476562 153.769531 " fill-opacity="1" fill-rule="evenodd"/><path fill="#4f1f15" d="M 196.886719 160.277344 C 196.59375 160.640625 196.054688 160.699219 195.6875 160.402344 C 195.320312 160.109375 195.265625 159.570312 195.558594 159.207031 C 206.738281 145.253906 231.023438 133.914062 251.53125 124.34375 C 267.066406 117.089844 280.410156 110.859375 283.921875 105.476562 C 284.179688 105.082031 284.707031 104.96875 285.101562 105.226562 C 285.496094 105.480469 285.605469 106.011719 285.351562 106.40625 C 281.570312 112.195312 268.023438 118.523438 252.25 125.882812 C 231.910156 135.378906 207.824219 146.625 196.886719 160.277344 " fill-opacity="1" fill-rule="evenodd"/><path fill="#4f1f15" d="M 199.222656 168.464844 C 198.925781 168.832031 198.394531 168.890625 198.027344 168.59375 C 197.660156 168.300781 197.601562 167.765625 197.898438 167.398438 C 209.078125 153.441406 233.359375 142.109375 253.871094 132.53125 C 269.402344 125.285156 282.746094 119.050781 286.261719 113.664062 C 286.515625 113.273438 287.042969 113.164062 287.4375 113.414062 C 287.832031 113.671875 287.945312 114.199219 287.6875 114.59375 C 283.910156 120.386719 270.359375 126.710938 254.589844 134.074219 C 234.246094 143.570312 210.160156 154.8125 199.222656 168.464844 " fill-opacity="1" fill-rule="evenodd"/><path fill="#4f1f15" d="M 202 176.269531 C 201.710938 176.640625 201.171875 176.703125 200.800781 176.414062 C 200.433594 176.121094 200.367188 175.585938 200.660156 175.214844 C 211.832031 160.992188 236.113281 149.070312 256.625 139 C 272.15625 131.375 285.503906 124.820312 289.027344 119.339844 C 289.277344 118.941406 289.804688 118.824219 290.203125 119.082031 C 290.601562 119.335938 290.714844 119.863281 290.460938 120.261719 C 286.683594 126.132812 273.136719 132.785156 257.371094 140.53125 C 237.027344 150.519531 212.941406 162.347656 202 176.269531 " fill-opacity="1" fill-rule="evenodd"/><path fill="#4f1f15" d="M 203.488281 184.707031 C 203.191406 185.074219 202.65625 185.132812 202.289062 184.839844 C 201.921875 184.542969 201.863281 184.007812 202.160156 183.640625 C 213.546875 169.417969 238.28125 157.496094 259.167969 147.429688 C 275 139.800781 288.601562 133.246094 292.191406 127.765625 C 292.449219 127.367188 292.976562 127.257812 293.367188 127.519531 C 293.761719 127.773438 293.875 128.300781 293.613281 128.699219 C 289.773438 134.574219 275.972656 141.222656 259.910156 148.964844 C 239.179688 158.953125 214.632812 170.785156 203.488281 184.707031 " fill-opacity="1" fill-rule="evenodd"/><path fill="#4f1f15" d="M 205.941406 191.21875 C 205.644531 191.585938 205.113281 191.644531 204.746094 191.347656 C 204.378906 191.054688 204.316406 190.519531 204.613281 190.152344 C 216 175.929688 240.734375 164.007812 261.625 153.941406 C 277.453125 146.308594 291.058594 139.757812 294.644531 134.277344 C 294.902344 133.878906 295.429688 133.769531 295.824219 134.027344 C 296.21875 134.285156 296.332031 134.8125 296.070312 135.210938 C 292.226562 141.082031 278.429688 147.734375 262.363281 155.476562 C 241.636719 165.464844 217.089844 177.296875 205.941406 191.21875 " fill-opacity="1" fill-rule="evenodd"/><path fill="#4f1f15" d="M 207.265625 200.148438 C 206.972656 200.515625 206.4375 200.570312 206.070312 200.277344 C 205.707031 199.984375 205.644531 199.449219 205.9375 199.082031 C 217.597656 184.613281 242.933594 172.148438 264.328125 161.621094 C 280.550781 153.636719 294.488281 146.78125 298.167969 141.210938 C 298.429688 140.820312 298.957031 140.710938 299.347656 140.96875 C 299.742188 141.230469 299.847656 141.761719 299.589844 142.152344 C 295.65625 148.105469 281.527344 155.054688 265.082031 163.148438 C 243.839844 173.601562 218.691406 185.976562 207.265625 200.148438 " fill-opacity="1" fill-rule="evenodd"/><path fill="#4f1f15" d="M 209.265625 207.347656 C 208.972656 207.714844 208.4375 207.769531 208.070312 207.476562 C 207.703125 207.183594 207.644531 206.644531 207.941406 206.277344 C 219.601562 191.808594 244.929688 179.347656 266.328125 168.816406 C 282.546875 160.835938 296.488281 153.976562 300.167969 148.40625 C 300.425781 148.015625 300.957031 147.90625 301.347656 148.167969 C 301.742188 148.429688 301.847656 148.957031 301.585938 149.347656 C 297.65625 155.300781 283.523438 162.253906 267.082031 170.34375 C 245.835938 180.800781 220.691406 193.171875 209.265625 207.347656 " fill-opacity="1" fill-rule="evenodd"/><path fill="#4f1f15" d="M 211.375 214.910156 C 211.082031 215.277344 210.546875 215.335938 210.179688 215.042969 C 209.8125 214.746094 209.753906 214.210938 210.046875 213.84375 C 221.707031 199.375 247.042969 186.910156 268.4375 176.382812 C 284.660156 168.402344 298.59375 161.539062 302.277344 155.972656 C 302.539062 155.578125 303.066406 155.472656 303.457031 155.734375 C 303.847656 155.992188 303.957031 156.519531 303.699219 156.914062 C 299.761719 162.863281 285.632812 169.820312 269.1875 177.910156 C 247.945312 188.363281 222.800781 200.738281 211.375 214.910156 " fill-opacity="1" fill-rule="evenodd"/><path fill="#4f1f15" d="M 213.183594 223.242188 C 212.886719 223.605469 212.347656 223.65625 211.984375 223.359375 C 211.621094 223.0625 211.574219 222.527344 211.871094 222.164062 C 223.914062 207.554688 250.074219 194.785156 272.167969 184 C 288.933594 175.820312 303.339844 168.789062 307.140625 163.175781 C 307.402344 162.785156 307.929688 162.683594 308.320312 162.949219 C 308.707031 163.210938 308.8125 163.742188 308.546875 164.128906 C 304.480469 170.128906 289.894531 177.246094 272.914062 185.535156 C 250.96875 196.25 224.984375 208.929688 213.183594 223.242188 " fill-opacity="1" fill-rule="evenodd"/><path fill="#4f1f15" d="M 215.917969 232.050781 C 215.617188 232.414062 215.085938 232.464844 214.722656 232.167969 C 214.359375 231.867188 214.304688 231.332031 214.605469 230.972656 C 226.648438 216.363281 252.808594 203.59375 274.902344 192.808594 C 291.667969 184.628906 306.070312 177.597656 309.871094 171.984375 C 310.136719 171.59375 310.667969 171.492188 311.054688 171.757812 C 311.441406 172.019531 311.546875 172.550781 311.28125 172.9375 C 307.21875 178.933594 292.632812 186.054688 275.648438 194.34375 C 253.703125 205.058594 227.71875 217.738281 215.917969 232.050781 " fill-opacity="1" fill-rule="evenodd"/><path fill="#4f1f15" d="M 218.628906 241.222656 C 218.332031 241.585938 217.796875 241.640625 217.433594 241.34375 C 217.066406 241.046875 217.011719 240.511719 217.308594 240.148438 C 229.34375 225.316406 255.503906 212.054688 277.601562 200.855469 C 294.367188 192.351562 308.773438 185.050781 312.578125 179.359375 C 312.835938 178.96875 313.367188 178.859375 313.757812 179.125 C 314.148438 179.386719 314.25 179.914062 313.992188 180.304688 C 309.9375 186.371094 295.347656 193.765625 278.367188 202.375 C 256.421875 213.503906 230.4375 226.675781 218.628906 241.222656 " fill-opacity="1" fill-rule="evenodd"/><path fill="#4f1f15" d="M 220.105469 251.507812 C 219.8125 251.882812 219.277344 251.945312 218.90625 251.652344 C 218.535156 251.359375 218.472656 250.828125 218.761719 250.453125 C 230.792969 235.140625 256.945312 220.796875 279.039062 208.683594 C 295.808594 199.484375 310.222656 191.582031 314.035156 185.722656 C 314.292969 185.328125 314.820312 185.214844 315.210938 185.472656 C 315.605469 185.726562 315.71875 186.253906 315.460938 186.648438 C 311.414062 192.875 296.832031 200.867188 279.859375 210.179688 C 257.910156 222.214844 231.917969 236.464844 220.105469 251.507812 " fill-opacity="1" fill-rule="evenodd"/><path fill="#4f1f15" d="M 222.910156 261.800781 C 222.621094 262.179688 222.089844 262.25 221.714844 261.964844 C 221.34375 261.679688 221.269531 261.144531 221.554688 260.765625 C 233.578125 245 259.726562 229.65625 281.816406 216.695312 C 298.589844 206.851562 313.003906 198.394531 316.828125 192.371094 C 317.082031 191.972656 317.605469 191.855469 318.003906 192.105469 C 318.40625 192.359375 318.519531 192.886719 318.269531 193.285156 C 314.226562 199.652344 299.648438 208.207031 282.679688 218.164062 C 260.722656 231.042969 234.734375 246.296875 222.910156 261.800781 " fill-opacity="1" fill-rule="evenodd"/><path fill="#4f1f15" d="M 225.59375 272.136719 C 225.316406 272.519531 224.78125 272.601562 224.402344 272.320312 C 224.023438 272.042969 223.941406 271.511719 224.21875 271.128906 C 236.234375 254.761719 262.378906 238.097656 284.464844 224.015625 C 301.246094 213.320312 315.664062 204.128906 319.496094 197.898438 C 319.742188 197.496094 320.269531 197.371094 320.667969 197.617188 C 321.070312 197.863281 321.195312 198.390625 320.949219 198.789062 C 316.917969 205.347656 302.34375 214.636719 285.378906 225.453125 C 263.417969 239.449219 237.421875 256.023438 225.59375 272.136719 " fill-opacity="1" fill-rule="evenodd"/></svg>