<svg xmlns="http://www.w3.org/2000/svg" xmlns:xlink="http://www.w3.org/1999/xlink" width="529" zoomAndPan="magnify" viewBox="0 0 396.75 396.749985" height="529" preserveAspectRatio="xMidYMid meet" version="1.0"><defs><clipPath id="d2366f8490"><path d="M 75 120 L 357 120 L 357 343.214844 L 75 343.214844 Z M 75 120 " clip-rule="nonzero"/></clipPath><clipPath id="e10487cfb3"><path d="M 52 53.148438 L 347 53.148438 L 347 340 L 52 340 Z M 52 53.148438 " clip-rule="nonzero"/></clipPath></defs><path fill="#bbe5e1" d="M 130.78125 192.488281 C 115.769531 190.84375 115.769531 190.84375 115.769531 190.84375 L 119.425781 198.160156 L 99.480469 198.679688 L 74.441406 251.492188 C 74.441406 251.492188 51.160156 243.507812 49.511719 225.953125 C 47.863281 208.394531 62.140625 179.871094 62.140625 179.871094 C 62.140625 179.871094 58.664062 161.402344 57.015625 151.160156 C 55.367188 140.921875 62.503906 129.765625 72.390625 129.398438 C 82.277344 129.035156 82.277344 129.035156 82.277344 129.035156 L 101.308594 165.425781 L 103.507812 164.140625 L 103.871094 130.863281 C 103.871094 130.863281 118.882812 130.5 126.019531 142.015625 C 133.152344 153.539062 137.550781 160.296875 141.574219 169.261719 C 145.609375 178.226562 145.789062 194.136719 130.78125 192.488281 Z M 160.175781 300.695312 C 160.175781 300.695312 153.484375 298.914062 150.140625 303.371094 L 141.445312 295.125 C 141.445312 295.125 137.429688 300.917969 142.5625 307.375 C 147.6875 313.832031 157.941406 322.96875 160.621094 325.867188 C 163.296875 328.761719 165.972656 327.648438 165.078125 322.304688 C 164.191406 316.957031 160.175781 300.695312 160.175781 300.695312 Z M 224.167969 336.335938 C 219.929688 334.332031 201.652344 325.195312 201.652344 325.195312 C 201.652344 325.195312 198.308594 327.195312 198.53125 331.652344 L 182.476562 331.652344 C 182.476562 331.652344 183.144531 342.792969 190.5 342.792969 C 197.859375 342.792969 220.152344 342.792969 224.167969 342.792969 C 228.175781 342.796875 228.40625 338.34375 224.167969 336.335938 Z M 224.167969 336.335938 " fill-opacity="1" fill-rule="nonzero"/><path fill="#00bfa8" d="M 85.296875 250.71875 C 107.496094 250.71875 145.546875 250.71875 145.546875 250.71875 L 143.53125 258.210938 C 143.53125 258.210938 139.785156 265.703125 126.8125 265.703125 C 113.839844 265.703125 78.664062 265.703125 66.84375 265.703125 C 55.019531 265.703125 51.5625 257.0625 47.527344 248.710938 C 43.492188 240.359375 35.703125 200.316406 34.265625 192.253906 C 32.824219 184.191406 38.878906 180.730469 44.640625 180.730469 C 50.40625 180.730469 62.140625 180.730469 62.140625 180.730469 C 62.140625 180.730469 53.863281 200.316406 50.40625 216.160156 C 46.949219 232 63.097656 250.71875 85.296875 250.71875 Z M 351.351562 179.570312 C 351.351562 179.570312 345.007812 205.492188 340.972656 220.46875 C 336.9375 235.445312 321.933594 246.101562 309.820312 246.101562 C 297.714844 246.101562 293.398438 245.8125 293.398438 245.8125 L 289.757812 265.890625 C 289.757812 265.890625 306.640625 265.890625 324.515625 265.890625 C 342.390625 265.890625 351.640625 251.289062 355.675781 233.429688 C 359.710938 215.570312 362.015625 200.015625 362.882812 190.804688 C 363.746094 181.589844 355.675781 179.570312 351.351562 179.570312 Z M 351.351562 179.570312 " fill-opacity="1" fill-rule="nonzero"/><g clip-path="url(#d2366f8490)"><path fill="#ffffff" d="M 176.285156 242.273438 L 192.113281 304.632812 L 166.539062 304.632812 L 159.839844 291.550781 L 161.207031 283.386719 L 140.363281 276.445312 L 145.542969 250.71875 C 145.542969 250.71875 94.292969 250.71875 85.289062 250.71875 C 76.285156 250.71875 75.160156 249.132812 75.160156 249.132812 L 99.480469 198.671875 L 119.425781 198.15625 C 119.425781 198.15625 137.914062 198.15625 155.265625 198.15625 C 172.625 198.15625 184.496094 210.027344 180.539062 225.234375 C 176.585938 240.445312 176.285156 242.273438 176.285156 242.273438 Z M 340.796875 123.148438 C 332.378906 120.945312 319.949219 120.144531 319.949219 120.144531 C 319.949219 120.144531 309.726562 127.355469 301.308594 123.148438 C 301.308594 123.148438 287.675781 125.554688 284.0625 133.160156 C 280.453125 140.773438 269.628906 164.605469 269.628906 164.605469 L 241.566406 131.957031 L 226.933594 144.980469 C 226.933594 144.980469 251.789062 177.03125 258.203125 185.441406 C 264.621094 193.855469 279.457031 192.449219 279.457031 192.449219 L 278.050781 200.863281 L 281.664062 217.6875 C 281.664062 217.6875 314.339844 213.480469 326.371094 212.277344 C 338.402344 211.074219 344.617188 205.464844 346.621094 198.660156 C 348.625 191.84375 355.84375 162.402344 356.449219 147.78125 C 357.039062 133.167969 349.21875 125.351562 340.796875 123.148438 Z M 247.644531 334.230469 C 247.644531 334.230469 243.652344 334.78125 243.652344 337.96875 C 243.652344 341.152344 244.761719 343.226562 247.53125 343.226562 C 250.300781 343.226562 278.570312 343.226562 282.953125 343.226562 C 287.339844 343.226562 285.664062 334.277344 285.664062 334.277344 Z M 247.644531 334.230469 " fill-opacity="1" fill-rule="nonzero"/></g><path fill="#f79a91" d="M 115.054688 98.179688 C 116.253906 104.871094 115.054688 116.832031 110.265625 120.65625 C 105.480469 124.480469 101.53125 124.839844 101.53125 124.839844 L 101.699219 127.019531 L 98.382812 132.097656 L 96.394531 139.273438 L 94.953125 132.761719 L 86.6875 127.234375 C 86.6875 127.234375 86.210938 123.410156 83.339844 122.449219 C 80.46875 121.488281 71.421875 107.554688 73.574219 98.226562 C 75.726562 88.902344 82.863281 78.695312 97.097656 80.964844 C 111.34375 83.234375 113.859375 91.488281 115.054688 98.179688 Z M 116.164062 161.125 L 124.257812 169.113281 L 120.535156 160.292969 C 120.535156 160.292969 118.484375 159.734375 116.164062 161.125 Z M 87.71875 165.117188 C 82.605469 166.042969 79.847656 167.402344 78.734375 168.609375 C 77.617188 169.820312 75.542969 176.359375 75.449219 178.589844 C 75.355469 180.820312 75.082031 185.644531 77.496094 185.644531 C 79.910156 185.644531 86.324219 181.832031 88.738281 180.347656 C 91.152344 178.863281 92.175781 171.800781 92.175781 171.800781 L 98.5 167.527344 C 98.503906 167.535156 92.835938 164.1875 87.71875 165.117188 Z M 197.40625 321.351562 C 196.332031 318.476562 192.113281 304.632812 192.113281 304.632812 L 174.65625 304.472656 C 174.65625 304.472656 180.269531 318.238281 181.347656 323.03125 C 182.421875 327.820312 182.46875 331.664062 182.46875 331.664062 C 182.46875 331.664062 194.292969 331.664062 198.523438 331.664062 C 198.921875 328.324219 201.644531 325.207031 201.644531 325.207031 C 201.644531 325.207031 198.492188 324.21875 197.40625 321.351562 Z M 161.210938 283.386719 L 145.285156 278.132812 C 145.285156 278.132812 144.808594 281.605469 143.847656 286.632812 C 142.886719 291.660156 141.453125 295.132812 141.453125 295.132812 L 150.148438 303.375 C 154.648438 299.285156 160.183594 300.703125 160.183594 300.703125 C 160.183594 300.703125 159.429688 295.496094 159.847656 291.558594 C 160.261719 287.613281 161.210938 283.386719 161.210938 283.386719 Z M 259.214844 300.554688 L 253.382812 301.859375 C 253.382812 301.859375 255.421875 306.609375 256.644531 312.171875 C 257.867188 317.734375 256.777344 322.078125 256.097656 323.976562 L 257.324219 324.65625 C 257.324219 324.65625 259.496094 322.621094 260.175781 319.90625 C 260.175781 319.90625 270.910156 317.324219 274.976562 325.335938 L 282.582031 325.335938 L 282.851562 312.582031 L 260.1875 312.582031 Z M 269.046875 214.085938 C 278.90625 213.070312 280.167969 211.546875 280.167969 211.546875 L 278.050781 200.863281 C 278.050781 200.863281 273.328125 201.371094 267.789062 201.675781 C 262.246094 201.976562 255.339844 203.476562 253.542969 204.972656 C 251.742188 206.472656 247.09375 210.664062 247.542969 214.261719 C 250.949219 213.882812 251.191406 213.507812 251.191406 213.507812 C 251.191406 213.507812 259.1875 215.101562 269.046875 214.085938 Z M 221.503906 123.371094 C 217.003906 123.015625 214.753906 122.605469 212.445312 122.300781 C 210.136719 122.007812 209.425781 124.015625 210.546875 124.847656 C 211.671875 125.675781 214.691406 127.214844 214.691406 127.214844 L 207.703125 129.222656 C 207.703125 129.222656 202.726562 126.855469 201.246094 126.023438 C 199.769531 125.199219 197.042969 126.910156 199.289062 128.925781 C 201.542969 130.9375 205.269531 132.890625 207.9375 134.308594 C 210.601562 135.726562 216.171875 135.847656 221.261719 136.023438 C 226.351562 136.195312 228.136719 136.144531 228.136719 136.144531 L 232.042969 140.402344 L 241.566406 131.957031 C 241.566406 131.957031 237.082031 127.859375 233.878906 126.023438 C 230.683594 124.195312 226.003906 123.726562 221.503906 123.371094 Z M 321.804688 81.636719 C 319.773438 65.28125 284.636719 62.882812 280.9375 83.164062 C 277.238281 103.441406 280.9375 108.011719 285.925781 113.371094 C 290.917969 118.726562 300.164062 117.4375 300.164062 117.4375 L 301.300781 123.15625 C 311.3125 127.527344 319.941406 120.152344 319.941406 120.152344 L 315.707031 111.941406 C 315.707031 111.941406 323.835938 97.984375 321.804688 81.636719 Z M 321.804688 81.636719 " fill-opacity="1" fill-rule="nonzero"/><g clip-path="url(#e10487cfb3)"><path fill="#28407e" d="M 139.75 335.574219 C 140.183594 337.484375 138.730469 339.296875 136.773438 339.296875 C 135.394531 339.296875 134.183594 338.378906 133.828125 337.046875 L 114.179688 265.636719 L 123.917969 265.496094 Z M 326.828125 265.496094 L 317.089844 265.636719 L 336.734375 337.046875 C 337.097656 338.378906 338.304688 339.296875 339.683594 339.296875 C 341.640625 339.296875 343.089844 337.484375 342.660156 335.574219 Z M 52.757812 335.574219 C 52.328125 337.484375 53.78125 339.296875 55.738281 339.296875 C 57.117188 339.296875 58.328125 338.378906 58.683594 337.046875 L 78.328125 265.636719 L 68.589844 265.496094 Z M 346.617188 198.660156 C 346.617188 198.660156 343.40625 209.394531 330.878906 211.351562 C 318.347656 213.304688 281.664062 217.6875 281.664062 217.6875 L 280.167969 211.546875 C 280.167969 211.546875 266.464844 216.046875 251.191406 213.5 C 251.191406 213.5 235.332031 215.847656 231.417969 226.414062 C 227.503906 236.976562 230.4375 246.761719 232.59375 255.953125 C 234.746094 265.144531 247.671875 303.6875 247.671875 303.6875 L 259.226562 300.554688 L 260.207031 312.683594 L 261.222656 312.683594 C 261.304688 314.242188 261.34375 317.371094 260.53125 319.84375 C 260.417969 319.867188 260.304688 319.886719 260.1875 319.90625 C 260.1875 319.90625 259.367188 322.007812 258.015625 323.898438 L 256.113281 323.972656 C 256.113281 323.972656 252.421875 330.382812 247.355469 334.273438 L 285.675781 334.273438 C 285.675781 334.273438 285.242188 325.328125 282.597656 325.328125 C 279.960938 325.328125 274.992188 325.328125 274.992188 325.328125 C 274.992188 325.328125 272.796875 318.050781 261.546875 319.671875 C 262.261719 317.152344 262.238281 314.226562 262.152344 312.675781 L 286.046875 312.675781 C 286.046875 312.675781 291.722656 267.101562 293.882812 246.558594 C 293.882812 246.558594 296.625 246.558594 308.570312 246.558594 C 320.5 246.566406 341.207031 241.527344 346.617188 198.660156 Z M 297.230469 95.605469 C 297.878906 95.605469 298.402344 95.082031 298.402344 94.4375 C 298.402344 93.792969 297.878906 93.269531 297.230469 93.269531 C 296.585938 93.269531 296.0625 93.792969 296.0625 94.4375 C 296.0625 95.082031 296.585938 95.605469 297.230469 95.605469 Z M 283 96.707031 C 283.644531 96.707031 284.171875 96.183594 284.171875 95.539062 C 284.171875 94.894531 283.644531 94.371094 283 94.371094 C 282.355469 94.371094 281.832031 94.894531 281.832031 95.539062 C 281.832031 96.183594 282.355469 96.707031 283 96.707031 Z M 248.613281 211.175781 C 248.367188 211.238281 248.21875 211.492188 248.277344 211.742188 C 248.332031 211.949219 248.519531 212.089844 248.726562 212.089844 C 248.769531 212.089844 248.800781 212.082031 248.84375 212.078125 C 248.863281 212.070312 251.117188 211.519531 253.234375 211.519531 C 253.488281 211.519531 253.699219 211.3125 253.699219 211.054688 C 253.699219 210.800781 253.488281 210.589844 253.234375 210.589844 C 250.996094 210.585938 248.714844 211.148438 248.613281 211.175781 Z M 255.292969 208.925781 C 255.535156 208.953125 255.777344 208.769531 255.804688 208.515625 C 255.832031 208.261719 255.648438 208.03125 255.394531 208.003906 C 252.75 207.714844 250.25 208.375 250.140625 208.402344 C 249.890625 208.46875 249.742188 208.722656 249.8125 208.964844 C 249.863281 209.175781 250.054688 209.308594 250.261719 209.308594 C 250.300781 209.308594 250.34375 209.300781 250.382812 209.292969 C 250.402344 209.289062 252.816406 208.648438 255.292969 208.925781 Z M 258.246094 206.527344 C 258.265625 206.527344 258.292969 206.535156 258.3125 206.535156 C 258.539062 206.535156 258.734375 206.367188 258.769531 206.136719 C 258.808594 205.882812 258.636719 205.644531 258.378906 205.613281 C 255.75 205.222656 253.355469 205.597656 253.253906 205.613281 C 253 205.652344 252.832031 205.886719 252.871094 206.144531 C 252.910156 206.398438 253.132812 206.574219 253.402344 206.527344 C 253.421875 206.527344 255.761719 206.164062 258.246094 206.527344 Z M 215.640625 128.800781 C 210.386719 129.0625 207.777344 128.773438 207.757812 128.765625 C 207.488281 128.730469 207.273438 128.921875 207.246094 129.175781 C 207.21875 129.429688 207.402344 129.660156 207.65625 129.6875 C 207.765625 129.699219 210.355469 129.988281 215.695312 129.71875 C 221.179688 129.445312 224.707031 129.402344 227.292969 131.15625 C 227.375 131.210938 227.464844 131.238281 227.558594 131.238281 C 227.707031 131.238281 227.851562 131.164062 227.941406 131.035156 C 228.082031 130.820312 228.027344 130.539062 227.820312 130.390625 C 224.980469 128.484375 221.328125 128.515625 215.640625 128.800781 Z M 286.734375 91.253906 C 286.773438 91.277344 286.8125 91.332031 286.855469 91.367188 C 288.058594 90.75 289.277344 91.109375 289.921875 91.394531 C 289.960938 91.347656 289.996094 91.285156 290.042969 91.246094 C 295.253906 86.601562 301.746094 89.484375 303.582031 90.722656 L 307.199219 89.566406 C 307.230469 89.257812 307.277344 88.941406 307.351562 88.597656 C 307.351562 88.597656 299.761719 88.449219 301.515625 79.703125 C 301.515625 79.703125 292.898438 85.757812 286.625 79.554688 C 286.625 79.554688 285.242188 82.035156 281.515625 81.746094 L 279.980469 89.257812 C 279.980469 89.257812 275.816406 86.777344 277.789062 81.308594 C 277.789062 81.308594 274.210938 72.484375 278.738281 68.546875 C 283.261719 64.609375 289.101562 67.015625 289.101562 67.015625 C 289.101562 67.015625 291.507812 62.421875 297.640625 62.929688 C 303.773438 63.441406 306.257812 67.089844 306.257812 67.089844 C 306.257812 67.089844 311.878906 62.566406 317.644531 66.144531 C 323.40625 69.71875 322.457031 75.625 322.457031 75.625 C 322.457031 75.625 328.15625 76.28125 329.613281 83.933594 C 331.074219 91.59375 325.449219 95.671875 325.449219 95.671875 C 325.449219 95.671875 326.472656 103.621094 323.117188 108.070312 C 319.761719 112.519531 315.707031 111.925781 315.707031 111.925781 C 315.707031 111.925781 311.953125 108.359375 314.070312 101.792969 C 314.070312 101.792969 320.347656 99.972656 319.984375 93.046875 C 319.621094 86.117188 313.996094 88.234375 313.996094 88.234375 L 310.78125 95.820312 C 310.78125 95.820312 307.191406 94.753906 307.144531 90.554688 L 304.234375 91.480469 C 304.703125 92.503906 304.835938 94.382812 304.265625 96.089844 C 303.707031 97.757812 302.046875 100.542969 297.152344 100.542969 C 292.085938 100.542969 290.296875 97.835938 289.679688 96.21875 C 289.121094 94.757812 289.148438 93.226562 289.492188 92.199219 C 289.011719 92 288.179688 91.777344 287.359375 92.160156 C 287.722656 93.175781 287.796875 94.773438 287.492188 96.3125 L 287.929688 96.417969 C 287.929688 96.417969 287.285156 99.066406 286.929688 100.597656 C 286.882812 100.8125 286.839844 101.097656 286.929688 101.222656 C 287.097656 101.457031 287.863281 101.527344 288.746094 101.605469 C 288.984375 101.625 289.25 101.652344 289.53125 101.679688 C 289.785156 101.707031 289.96875 101.9375 289.941406 102.191406 C 289.914062 102.425781 289.710938 102.609375 289.484375 102.609375 C 289.46875 102.609375 289.449219 102.609375 289.4375 102.609375 C 289.160156 102.582031 288.90625 102.554688 288.664062 102.535156 C 287.417969 102.417969 286.597656 102.34375 286.175781 101.769531 C 285.851562 101.324219 285.933594 100.773438 286.019531 100.390625 C 286.101562 100.054688 286.1875 99.664062 286.28125 99.261719 C 285.402344 100.476562 284.15625 101.195312 282.609375 101.332031 C 282.4375 101.34375 282.261719 101.351562 282.09375 101.351562 C 280.046875 101.351562 278.355469 100.242188 277.277344 98.1875 C 276.175781 96.070312 275.925781 93.125 276.765625 92.117188 C 279.730469 88.605469 285.394531 90.417969 286.734375 91.253906 Z M 290.660156 91.9375 C 290.640625 91.957031 290.613281 92 290.59375 92.023438 C 290.59375 92.105469 290.582031 92.191406 290.527344 92.265625 C 290.492188 92.320312 290.4375 92.359375 290.390625 92.394531 C 290.117188 93.105469 289.996094 94.464844 290.539062 95.902344 C 291.070312 97.292969 292.636719 99.632812 297.144531 99.632812 C 301.246094 99.632812 302.800781 97.554688 303.386719 95.808594 C 304.078125 93.730469 303.53125 91.832031 303.230469 91.609375 C 301.917969 90.621094 295.550781 87.582031 290.660156 91.9375 Z M 277.480469 92.738281 C 277.042969 93.253906 277.007812 95.6875 278.105469 97.777344 C 278.796875 99.101562 280.117188 100.640625 282.535156 100.425781 C 285.234375 100.1875 286.1875 97.863281 286.519531 96.5 C 287.054688 94.253906 286.585938 92.246094 286.253906 92.039062 C 285.597656 91.628906 283.746094 90.9375 281.796875 90.9375 C 280.238281 90.9375 278.617188 91.375 277.480469 92.738281 Z M 293.511719 108.265625 C 293.269531 108.351562 293.140625 108.613281 293.230469 108.855469 C 293.296875 109.042969 293.480469 109.164062 293.667969 109.164062 C 293.722656 109.164062 293.769531 109.160156 293.820312 109.140625 C 293.921875 109.105469 296.355469 108.230469 297.492188 106.214844 C 298.300781 104.777344 297.804688 104.085938 297.546875 103.851562 C 296.949219 103.304688 295.859375 103.460938 294.703125 104.253906 C 292.949219 105.464844 290.820312 105.644531 290.796875 105.644531 C 290.539062 105.664062 290.351562 105.886719 290.371094 106.140625 C 290.390625 106.398438 290.632812 106.585938 290.871094 106.566406 C 290.964844 106.558594 293.257812 106.363281 295.226562 105.011719 C 296.148438 104.382812 296.753906 104.382812 296.921875 104.535156 C 297.070312 104.671875 297.054688 105.105469 296.6875 105.757812 C 295.726562 107.464844 293.539062 108.25 293.511719 108.265625 Z M 292.671875 88.066406 C 292.691406 88.046875 295.046875 86.09375 299.511719 87.914062 C 299.746094 88.007812 300.015625 87.898438 300.117188 87.65625 C 300.210938 87.421875 300.097656 87.152344 299.859375 87.054688 C 294.878906 85.023438 292.179688 87.269531 292.066406 87.367188 C 291.871094 87.535156 291.851562 87.824219 292.019531 88.019531 C 292.113281 88.128906 292.242188 88.179688 292.367188 88.179688 C 292.476562 88.179688 292.585938 88.140625 292.671875 88.066406 Z M 281.285156 88.066406 C 281.378906 87.988281 283.695312 86.105469 288.125 87.90625 C 288.359375 88 288.628906 87.894531 288.730469 87.652344 C 288.824219 87.414062 288.710938 87.148438 288.476562 87.046875 C 283.492188 85.015625 280.792969 87.261719 280.679688 87.363281 C 280.484375 87.53125 280.464844 87.820312 280.632812 88.011719 C 280.726562 88.121094 280.855469 88.175781 280.988281 88.175781 C 281.089844 88.179688 281.199219 88.140625 281.285156 88.066406 Z M 279.960938 188.9375 C 280.191406 188.9375 280.390625 188.769531 280.417969 188.53125 L 284.972656 154.539062 C 285.691406 148.535156 287.554688 144.453125 289.066406 142.648438 C 289.226562 142.453125 289.203125 142.15625 289.007812 141.996094 C 288.8125 141.835938 288.515625 141.859375 288.355469 142.054688 C 287.582031 142.984375 284.984375 146.617188 284.050781 154.425781 L 279.496094 188.410156 C 279.464844 188.667969 279.636719 188.894531 279.894531 188.929688 C 279.921875 188.929688 279.941406 188.9375 279.960938 188.9375 Z M 329.136719 140.792969 C 329.074219 141.007812 327.71875 146.140625 328.019531 151.367188 C 328.160156 153.839844 327.320312 155.984375 326.425781 158.25 C 325.503906 160.59375 324.550781 163.019531 324.703125 165.914062 C 324.84375 168.484375 323.953125 171.640625 322.996094 174.988281 C 321.988281 178.535156 320.851562 182.546875 320.789062 186.515625 L 277.910156 200.433594 C 277.667969 200.511719 277.53125 200.773438 277.613281 201.015625 C 277.675781 201.210938 277.855469 201.339844 278.058594 201.339844 C 278.105469 201.339844 278.152344 201.332031 278.199219 201.320312 L 321.394531 187.304688 C 321.582031 187.242188 321.71875 187.0625 321.71875 186.859375 C 321.71875 182.910156 322.820312 179.011719 323.890625 175.25 C 324.859375 171.828125 325.78125 168.597656 325.632812 165.875 C 325.484375 163.1875 326.40625 160.855469 327.292969 158.597656 C 328.179688 156.339844 329.101562 154.007812 328.949219 151.328125 C 328.652344 146.253906 330.023438 141.09375 330.039062 141.046875 C 330.105469 140.800781 329.957031 140.542969 329.707031 140.476562 C 329.460938 140.402344 329.203125 140.542969 329.136719 140.792969 Z M 316 96.042969 C 315.808594 96.210938 315.78125 96.5 315.949219 96.695312 C 316.042969 96.800781 316.171875 96.863281 316.304688 96.863281 C 316.40625 96.863281 316.511719 96.828125 316.601562 96.753906 C 316.679688 96.6875 318.5625 95.089844 318.128906 92.804688 C 317.765625 90.902344 316.027344 90.324219 315.15625 90.285156 C 314.871094 90.265625 314.683594 90.472656 314.671875 90.722656 C 314.65625 90.976562 314.851562 91.191406 315.105469 91.207031 C 315.179688 91.210938 316.894531 91.320312 317.210938 92.972656 C 317.542969 94.71875 316.015625 96.03125 316 96.042969 Z M 118.21875 211.546875 C 114.523438 211.257812 111.335938 211.015625 109.566406 210.605469 C 103.402344 209.195312 102.117188 204.421875 102.070312 204.222656 C 102.007812 203.972656 101.753906 203.824219 101.503906 203.886719 C 101.253906 203.945312 101.109375 204.203125 101.167969 204.445312 C 101.222656 204.664062 102.621094 209.96875 109.359375 211.503906 C 111.195312 211.921875 114.261719 212.164062 118.144531 212.464844 C 127.808594 213.21875 142.355469 214.339844 150.425781 219.667969 L 145.367188 246.640625 C 145.320312 246.890625 145.488281 247.128906 145.738281 247.175781 C 145.765625 247.183594 145.796875 247.183594 145.824219 247.183594 C 146.046875 247.183594 146.234375 247.03125 146.28125 246.808594 L 151.398438 219.535156 C 151.433594 219.355469 151.359375 219.171875 151.203125 219.066406 C 142.984375 213.46875 128.082031 212.3125 118.21875 211.546875 Z M 175.777344 245.894531 C 175.53125 245.828125 175.273438 245.976562 175.214844 246.222656 L 165.167969 284.441406 L 161.738281 283.253906 C 161.496094 283.164062 161.230469 283.300781 161.144531 283.542969 C 161.058594 283.785156 161.191406 284.046875 161.425781 284.132812 L 165.328125 285.484375 C 165.375 285.503906 165.429688 285.511719 165.480469 285.511719 C 165.554688 285.511719 165.628906 285.492188 165.699219 285.457031 C 165.8125 285.394531 165.894531 285.289062 165.925781 285.167969 L 176.101562 246.464844 C 176.175781 246.210938 176.027344 245.960938 175.777344 245.894531 Z M 146.363281 289.972656 C 146.261719 290.054688 143.929688 292.042969 144.191406 295.375 C 144.210938 295.617188 144.410156 295.796875 144.652344 295.796875 C 144.667969 295.796875 144.679688 295.796875 144.695312 295.796875 C 144.949219 295.777344 145.136719 295.554688 145.117188 295.300781 C 144.890625 292.457031 146.941406 290.703125 146.960938 290.683594 C 147.15625 290.515625 147.183594 290.226562 147.019531 290.03125 C 146.851562 289.835938 146.5625 289.8125 146.363281 289.972656 Z M 187.6875 324.769531 C 187.785156 324.535156 187.667969 324.265625 187.433594 324.167969 C 187.191406 324.066406 186.929688 324.1875 186.828125 324.421875 C 186.78125 324.542969 185.625 327.472656 187.507812 330.152344 C 187.59375 330.28125 187.742188 330.347656 187.882812 330.347656 C 187.980469 330.347656 188.066406 330.320312 188.152344 330.261719 C 188.363281 330.113281 188.414062 329.824219 188.269531 329.617188 C 186.679688 327.363281 187.675781 324.796875 187.6875 324.769531 Z M 106.132812 190.085938 C 106.171875 190.105469 106.210938 190.117188 106.257812 190.125 L 115.714844 191.300781 C 115.734375 191.300781 115.753906 191.308594 115.777344 191.308594 C 116.003906 191.308594 116.207031 191.132812 116.234375 190.90625 C 116.265625 190.648438 116.085938 190.421875 115.828125 190.386719 L 107.003906 189.285156 C 114.933594 181.980469 126.117188 171.175781 126.246094 171.054688 C 126.339844 170.96875 126.386719 170.839844 126.386719 170.714844 C 126.386719 170.585938 126.328125 170.464844 126.234375 170.378906 L 125.367188 169.589844 L 129.433594 169.644531 C 129.433594 169.644531 129.441406 169.644531 129.441406 169.644531 C 129.695312 169.644531 129.898438 169.445312 129.90625 169.1875 C 129.90625 168.933594 129.703125 168.722656 129.449219 168.71875 L 124.566406 168.65625 L 116.730469 149.710938 C 116.628906 149.472656 116.359375 149.359375 116.125 149.460938 C 115.890625 149.554688 115.777344 149.832031 115.875 150.066406 L 123.097656 167.546875 L 112.574219 158.019531 C 112.417969 157.878906 112.183594 157.859375 112.003906 157.980469 L 103.515625 163.664062 L 103.878906 130.875 L 101.699219 127.03125 L 98.382812 132.113281 L 96.394531 139.289062 L 94.953125 132.777344 L 86.339844 125.714844 L 82.277344 129.054688 L 101.195312 165.222656 L 91.921875 171.4375 C 91.707031 171.582031 91.652344 171.867188 91.792969 172.085938 C 91.933594 172.300781 92.222656 172.351562 92.4375 172.210938 L 112.21875 158.960938 L 125.246094 170.734375 C 122.945312 172.957031 110.074219 185.347656 103.117188 191.570312 C 93.925781 199.800781 78.960938 200.136719 72.707031 194.929688 C 65.199219 188.679688 63.230469 183.296875 63.21875 183.246094 C 63.128906 183.003906 62.867188 182.875 62.625 182.960938 C 62.382812 183.050781 62.253906 183.3125 62.34375 183.554688 C 62.421875 183.78125 64.394531 189.210938 72.113281 195.640625 C 75.207031 198.214844 79.480469 199.335938 84.003906 199.335938 C 91.167969 199.335938 98.960938 196.535156 103.738281 192.261719 C 104.476562 191.597656 105.285156 190.863281 106.132812 190.085938 Z M 81.449219 166.824219 C 81.46875 166.824219 81.488281 166.824219 81.511719 166.816406 C 81.765625 166.78125 81.941406 166.546875 81.90625 166.292969 L 80.441406 155.507812 C 80.40625 155.253906 80.179688 155.078125 79.917969 155.113281 C 79.660156 155.144531 79.484375 155.378906 79.519531 155.636719 L 80.984375 166.417969 C 81.019531 166.65625 81.222656 166.824219 81.449219 166.824219 Z M 96.40625 101.984375 C 96.40625 102.628906 96.929688 103.152344 97.578125 103.152344 C 98.222656 103.152344 98.746094 102.628906 98.746094 101.984375 C 98.746094 101.335938 98.222656 100.8125 97.578125 100.8125 C 96.929688 100.8125 96.40625 101.335938 96.40625 101.984375 Z M 109.871094 101.984375 C 109.871094 102.628906 110.394531 103.152344 111.039062 103.152344 C 111.6875 103.152344 112.210938 102.628906 112.210938 101.984375 C 112.210938 101.335938 111.6875 100.8125 111.039062 100.8125 C 110.394531 100.8125 109.871094 101.335938 109.871094 101.984375 Z M 108.941406 108.734375 C 109.132812 108.441406 109.152344 108.089844 109.003906 107.742188 C 108.4375 106.425781 106.714844 103.253906 106.640625 103.117188 C 106.519531 102.898438 106.238281 102.808594 106.011719 102.929688 C 105.789062 103.050781 105.699219 103.332031 105.820312 103.5625 C 105.84375 103.59375 107.597656 106.835938 108.140625 108.109375 C 108.175781 108.199219 108.164062 108.21875 108.148438 108.238281 C 107.925781 108.582031 106.628906 108.84375 105.558594 108.871094 C 105.304688 108.875 105.101562 109.089844 105.109375 109.347656 C 105.117188 109.59375 105.324219 109.796875 105.574219 109.796875 C 105.578125 109.796875 105.578125 109.796875 105.585938 109.796875 C 106.050781 109.785156 108.34375 109.675781 108.941406 108.734375 Z M 104.726562 114.0625 C 105.304688 114.0625 105.976562 113.964844 106.757812 113.699219 C 107 113.621094 107.132812 113.359375 107.054688 113.117188 C 106.972656 112.875 106.710938 112.738281 106.46875 112.820312 C 103.542969 113.796875 102.566406 112.175781 102.527344 112.101562 C 102.40625 111.878906 102.125 111.800781 101.902344 111.921875 C 101.679688 112.042969 101.59375 112.324219 101.710938 112.550781 C 101.753906 112.625 102.566406 114.0625 104.726562 114.0625 Z M 102.6875 98.003906 C 102.769531 98.066406 102.871094 98.09375 102.964844 98.09375 C 103.105469 98.09375 103.246094 98.023438 103.339844 97.902344 C 103.488281 97.695312 103.449219 97.40625 103.238281 97.257812 C 98.8125 94.019531 93.769531 97.210938 93.722656 97.246094 C 93.507812 97.386719 93.449219 97.667969 93.589844 97.882812 C 93.730469 98.097656 94.011719 98.160156 94.226562 98.023438 C 94.402344 97.902344 98.789062 95.148438 102.6875 98.003906 Z M 107.273438 97.257812 C 107.066406 97.414062 107.027344 97.703125 107.179688 97.902344 C 107.335938 98.113281 107.625 98.152344 107.828125 98 C 107.960938 97.898438 111.210938 95.550781 113.792969 97.964844 C 113.878906 98.046875 113.992188 98.09375 114.109375 98.09375 C 114.230469 98.09375 114.355469 98.046875 114.445312 97.945312 C 114.617188 97.757812 114.613281 97.46875 114.421875 97.292969 C 111.277344 94.355469 107.316406 97.230469 107.273438 97.257812 Z M 67.554688 97.359375 C 67.320312 106.390625 72.679688 116.347656 83.347656 122.449219 L 80.675781 109.75 C 80.675781 109.75 75.894531 111.046875 74.765625 106.183594 C 73.632812 101.316406 79.800781 100.449219 79.800781 100.449219 L 80.667969 109.75 C 80.667969 109.75 84.273438 107.371094 86.875 102.777344 L 92.675781 102.777344 C 92.796875 104.449219 93.667969 108.015625 98.929688 108.015625 C 103.453125 108.015625 104.726562 103.507812 104.960938 102.425781 C 105.335938 102.238281 106.320312 101.867188 107.320312 102.417969 C 107.550781 103.40625 108.726562 107.453125 112.414062 107.453125 C 113.675781 107.453125 114.664062 107.097656 115.359375 106.402344 C 116.542969 105.214844 116.535156 103.328125 116.527344 102.3125 L 116.527344 102.125 C 116.527344 101.867188 116.320312 101.660156 116.066406 101.660156 C 115.808594 101.660156 115.601562 101.867188 115.601562 102.125 L 115.601562 102.3125 C 115.605469 103.253906 115.613281 104.832031 114.699219 105.746094 C 114.1875 106.261719 113.414062 106.519531 112.414062 106.519531 C 109.011719 106.519531 108.214844 102.21875 108.1875 102.035156 C 108.167969 101.910156 108.09375 101.792969 107.980469 101.726562 C 106.160156 100.550781 104.371094 101.679688 104.296875 101.726562 C 104.1875 101.800781 104.105469 101.914062 104.085938 102.042969 C 104.054688 102.25 103.238281 107.074219 98.921875 107.074219 C 94.273438 107.074219 93.574219 104.085938 93.574219 102.296875 C 93.574219 102.042969 93.367188 101.835938 93.109375 101.835938 L 87.359375 101.835938 C 89.136719 98.300781 90.226562 93.617188 88.894531 87.832031 C 88.894531 87.832031 100.300781 93.65625 112.84375 91.125 C 112.84375 91.125 110.820312 80.871094 100.804688 78.59375 C 91.976562 76.585938 81.078125 76.253906 73.675781 83.402344 C 72.894531 82.113281 70.855469 79.882812 66.285156 80.449219 C 59.941406 81.226562 57.425781 90.339844 60.898438 94.679688 C 62.949219 97.226562 65.652344 97.535156 67.554688 97.359375 Z M 98.667969 126.28125 C 99.054688 126.441406 100.28125 126.675781 101.691406 126.902344 L 101.539062 124.839844 C 98.390625 124.839844 97.5625 125.824219 98.667969 126.28125 Z M 87.308594 170.503906 C 87.050781 170.457031 86.816406 170.625 86.769531 170.875 C 86.714844 171.175781 85.425781 178.238281 87.144531 180.820312 C 87.234375 180.953125 87.382812 181.027344 87.527344 181.027344 C 87.617188 181.027344 87.703125 181 87.785156 180.945312 C 88 180.804688 88.054688 180.515625 87.914062 180.300781 C 86.65625 178.421875 87.3125 172.976562 87.675781 171.035156 C 87.722656 170.792969 87.554688 170.550781 87.308594 170.503906 Z M 83.21875 172.238281 C 82.960938 172.191406 82.726562 172.359375 82.679688 172.609375 C 82.625 172.910156 81.335938 179.972656 83.058594 182.550781 C 83.144531 182.6875 83.292969 182.761719 83.441406 182.761719 C 83.527344 182.761719 83.613281 182.734375 83.695312 182.679688 C 83.910156 182.539062 83.964844 182.25 83.824219 182.035156 C 82.566406 180.152344 83.226562 174.710938 83.589844 172.777344 C 83.636719 172.527344 83.46875 172.285156 83.21875 172.238281 Z M 79.433594 174.390625 C 79.175781 174.339844 78.941406 174.507812 78.894531 174.757812 C 78.839844 175.0625 77.546875 182.121094 79.269531 184.703125 C 79.359375 184.835938 79.503906 184.910156 79.652344 184.910156 C 79.742188 184.910156 79.828125 184.882812 79.910156 184.832031 C 80.125 184.6875 80.179688 184.398438 80.039062 184.183594 C 78.78125 182.304688 79.4375 176.863281 79.800781 174.925781 C 79.847656 174.675781 79.679688 174.4375 79.433594 174.390625 Z M 163.082031 103.46875 C 157.660156 103.46875 156.636719 99.925781 156.515625 97.785156 C 156.476562 97.0625 156.296875 94.71875 156.046875 91.46875 C 155.285156 81.496094 154.007812 64.804688 154.128906 61.21875 C 154.292969 56.339844 157.6875 53.785156 160.949219 53.785156 C 162.289062 53.785156 177.804688 53.644531 194.21875 53.496094 C 213.097656 53.324219 232.609375 53.148438 234.542969 53.148438 C 238.167969 53.148438 239.9375 55.324219 239.9375 59.804688 C 239.9375 62.84375 240.039062 75.925781 240.066406 79.863281 C 240.085938 82.007812 241.285156 83.957031 243.195312 84.9375 L 261.144531 94.167969 C 261.339844 94.269531 261.433594 94.492188 261.378906 94.699219 C 261.324219 94.90625 261.171875 95.070312 260.90625 95.042969 L 243.671875 94.277344 C 241.734375 94.1875 239.925781 95.054688 238.796875 96.585938 C 237.828125 97.902344 236.414062 98.664062 234.59375 98.851562 C 230.410156 99.28125 168.628906 103.285156 163.511719 103.460938 C 163.371094 103.46875 163.222656 103.46875 163.082031 103.46875 Z M 163.484375 102.535156 C 168.597656 102.367188 230.320312 98.359375 234.496094 97.929688 C 236.050781 97.769531 237.242188 97.136719 238.046875 96.042969 C 239.359375 94.261719 241.472656 93.253906 243.710938 93.355469 L 258.835938 94.027344 L 242.769531 85.761719 C 240.550781 84.621094 239.160156 82.363281 239.136719 79.871094 C 239.105469 75.933594 239.011719 62.84375 239.011719 59.804688 C 239.011719 55.84375 237.632812 54.074219 234.542969 54.074219 C 232.609375 54.074219 213.097656 54.25 194.234375 54.425781 C 177.808594 54.570312 162.300781 54.714844 160.957031 54.714844 C 158.136719 54.714844 155.207031 56.957031 155.066406 61.25 C 154.945312 64.785156 156.269531 82.101562 156.980469 91.398438 C 157.230469 94.660156 157.410156 97.011719 157.453125 97.734375 C 157.632812 101.042969 159.664062 102.660156 163.484375 102.535156 Z M 166.203125 65.351562 L 226.761719 64.871094 C 227.019531 64.871094 227.226562 64.664062 227.222656 64.410156 C 227.222656 64.152344 227.011719 63.953125 226.757812 63.953125 C 226.757812 63.953125 226.757812 63.953125 226.75 63.953125 L 166.195312 64.429688 C 165.941406 64.429688 165.730469 64.636719 165.738281 64.894531 C 165.738281 65.140625 165.945312 65.351562 166.203125 65.351562 Z M 166.355469 75.21875 C 166.101562 75.21875 165.894531 75.429688 165.898438 75.683594 C 165.898438 75.9375 166.109375 76.140625 166.363281 76.140625 C 166.363281 76.140625 166.363281 76.140625 166.371094 76.140625 L 226.925781 75.664062 C 227.179688 75.664062 227.390625 75.457031 227.382812 75.199219 C 227.382812 74.945312 227.152344 74.75 226.917969 74.742188 Z M 227.234375 86.332031 L 166.671875 86.8125 C 166.417969 86.8125 166.207031 87.019531 166.214844 87.273438 C 166.214844 87.53125 166.425781 87.730469 166.679688 87.730469 C 166.679688 87.730469 166.679688 87.730469 166.6875 87.730469 L 227.242188 87.253906 C 227.496094 87.253906 227.707031 87.046875 227.699219 86.789062 C 227.699219 86.542969 227.488281 86.332031 227.234375 86.332031 Z M 306.210938 118.195312 C 306.210938 117.128906 305.234375 116.441406 300.164062 117.4375 L 301.058594 121.925781 C 303.378906 120.589844 306.210938 118.828125 306.210938 118.195312 Z M 306.210938 118.195312 " fill-opacity="1" fill-rule="nonzero"/></g></svg>