<svg xmlns="http://www.w3.org/2000/svg" xmlns:xlink="http://www.w3.org/1999/xlink" width="529" zoomAndPan="magnify" viewBox="0 0 396.75 396.749985" height="529" preserveAspectRatio="xMidYMid meet" version="1.0"><defs><clipPath id="e94136f5bc"><path d="M 167 38.285156 L 281 38.285156 L 281 271 L 167 271 Z M 167 38.285156 " clip-rule="nonzero"/></clipPath><clipPath id="942fa89348"><path d="M 87.746094 53 L 307 53 L 307 358 L 87.746094 358 Z M 87.746094 53 " clip-rule="nonzero"/></clipPath></defs><path fill="#e6aea9" d="M 277.714844 113.511719 L 277.097656 82.914062 L 265.476562 89.925781 L 268.226562 122.660156 Z M 277.714844 113.511719 " fill-opacity="1" fill-rule="nonzero"/><path fill="#e6aea9" d="M 180.210938 134.417969 L 156.003906 171.757812 L 162.882812 294.15625 L 217.203125 284.527344 L 242.441406 269.949219 L 244.023438 203.386719 L 204.140625 139.4375 Z M 180.210938 134.417969 " fill-opacity="1" fill-rule="nonzero"/><path fill="#e6aea9" d="M 272.488281 202.148438 L 278.199219 201.53125 C 278.199219 201.53125 279.640625 201.324219 280.464844 199.46875 C 281.292969 197.609375 287.960938 166.597656 287.6875 165.085938 C 287.410156 163.574219 282.941406 147.480469 282.941406 147.480469 L 277.648438 131.390625 L 276.824219 131.390625 L 265.613281 141.15625 L 263.207031 174.851562 L 273.523438 181.109375 Z M 272.488281 202.148438 " fill-opacity="1" fill-rule="nonzero"/><path fill="#e6aea9" d="M 265.820312 222.367188 L 271.113281 243.957031 L 275.789062 248.222656 L 280.878906 243.132812 C 280.878906 243.132812 286.585938 226.214844 286.585938 224.980469 C 286.585938 223.742188 283.148438 218.445312 283.148438 218.445312 Z M 265.820312 222.367188 " fill-opacity="1" fill-rule="nonzero"/><g clip-path="url(#e94136f5bc)"><path fill="#000000" d="M 280.671875 260.597656 C 280.742188 261.972656 280.261719 263.28125 279.433594 264.3125 L 276.203125 268.507812 C 275.101562 269.949219 273.316406 270.773438 271.457031 270.707031 L 178.214844 268.164062 C 175.121094 268.09375 172.644531 265.550781 172.578125 262.453125 L 167.96875 48.464844 C 167.96875 47.363281 167.558594 44.0625 169.070312 41.65625 C 170.582031 39.25 175.535156 38.285156 177.664062 38.421875 L 269.121094 44.886719 C 272.078125 45.09375 274.414062 47.5 274.484375 50.457031 Z M 280.671875 260.597656 " fill-opacity="1" fill-rule="evenodd"/></g><path fill="#eff9f4" d="M 278.609375 258.671875 C 277.578125 260.253906 275.789062 261.21875 273.867188 261.148438 L 187.636719 257.089844 C 184.816406 256.953125 182.546875 254.617188 182.480469 251.796875 L 175.328125 47.429688 C 175.191406 44.40625 178.078125 41.585938 181.035156 41.378906 L 267.882812 47.707031 C 270.769531 47.914062 272.628906 50.527344 272.695312 53.484375 Z M 278.609375 258.671875 " fill-opacity="1" fill-rule="evenodd"/><path fill="#000000" d="M 231.4375 53.414062 C 231.4375 55.957031 229.375 58.019531 226.832031 58.019531 C 224.285156 58.019531 222.222656 55.957031 222.222656 53.414062 C 222.222656 50.871094 224.285156 48.808594 226.832031 48.808594 C 229.375 48.808594 231.4375 50.871094 231.4375 53.414062 Z M 231.4375 53.414062 " fill-opacity="1" fill-rule="evenodd"/><path fill="#335d76" d="M 264.101562 176.636719 C 264.308594 176.636719 264.582031 176.570312 264.71875 176.363281 C 264.859375 176.15625 264.996094 175.949219 264.925781 175.746094 L 264.445312 169.417969 C 264.445312 169.003906 264.03125 168.59375 263.621094 168.59375 C 240.859375 168.660156 197.539062 168.730469 196.023438 168.660156 C 195.820312 168.660156 195.613281 168.660156 195.40625 168.800781 C 195.199219 168.9375 195.0625 169.210938 195.0625 169.488281 L 195.269531 175.605469 C 195.269531 176.089844 195.679688 176.433594 196.09375 176.433594 Z M 262.863281 170.3125 L 263.207031 174.917969 L 197.058594 174.851562 L 196.917969 170.378906 C 200.082031 170.449219 212.734375 170.449219 262.863281 170.3125 Z M 197.402344 148.375 L 265.269531 148.445312 C 265.476562 148.445312 265.75 148.375 265.890625 148.171875 C 266.027344 147.964844 266.164062 147.757812 266.09375 147.550781 L 265.613281 141.226562 C 265.613281 140.8125 265.203125 140.398438 264.789062 140.398438 C 242.027344 140.46875 198.707031 140.539062 197.195312 140.46875 C 196.988281 140.46875 196.78125 140.46875 196.574219 140.605469 C 196.367188 140.742188 196.230469 141.019531 196.230469 141.292969 L 196.4375 147.414062 C 196.574219 148.03125 196.917969 148.375 197.402344 148.375 Z M 264.03125 142.1875 L 264.375 146.792969 L 198.226562 146.726562 L 198.089844 142.257812 C 201.320312 142.257812 213.902344 142.324219 264.03125 142.1875 Z M 264.859375 200.910156 C 265.0625 200.910156 265.339844 200.84375 265.476562 200.636719 C 265.613281 200.429688 265.75 200.222656 265.683594 200.019531 L 265.203125 193.691406 C 265.203125 193.277344 264.789062 192.867188 264.375 192.867188 C 241.617188 192.933594 198.292969 193.003906 196.78125 192.933594 C 196.574219 192.933594 196.367188 192.933594 196.164062 193.074219 C 195.957031 193.210938 195.820312 193.484375 195.820312 193.761719 L 196.023438 199.878906 C 196.023438 200.363281 196.4375 200.707031 196.851562 200.707031 Z M 197.746094 199.125 L 197.605469 194.652344 C 200.839844 194.722656 213.492188 194.722656 263.621094 194.585938 L 263.964844 199.191406 Z M 198.15625 133.453125 C 198.15625 132.972656 198.570312 132.628906 198.980469 132.628906 L 231.851562 132.90625 C 232.332031 132.90625 232.675781 133.316406 232.675781 133.730469 C 232.675781 134.210938 232.261719 134.554688 231.851562 134.554688 L 198.980469 134.28125 C 198.5 134.28125 198.15625 133.9375 198.15625 133.453125 Z M 231.027344 161.097656 C 231.507812 161.097656 231.851562 161.511719 231.851562 161.921875 C 231.851562 162.402344 231.4375 162.746094 231.027344 162.746094 L 198.15625 162.472656 C 197.675781 162.472656 197.332031 162.058594 197.332031 161.648438 C 197.332031 161.167969 197.675781 160.753906 198.15625 160.824219 Z M 229.855469 186.128906 C 230.339844 186.128906 230.683594 186.539062 230.683594 186.953125 C 230.683594 187.433594 230.269531 187.777344 229.855469 187.777344 L 196.988281 187.503906 C 196.507812 187.503906 196.164062 187.089844 196.164062 186.675781 C 196.164062 186.195312 196.574219 185.851562 196.988281 185.851562 Z M 275.101562 232.0625 L 237.972656 230.6875 L 237.558594 219.203125 L 274.140625 220.507812 Z M 275.101562 232.0625 " fill-opacity="1" fill-rule="evenodd"/><g clip-path="url(#942fa89348)"><path fill="#e6aea9" d="M 178.078125 268.023438 L 242.441406 269.949219 C 242.441406 269.949219 231.4375 285.007812 218.578125 294.429688 C 205.859375 303.710938 182.683594 312.308594 182.683594 312.308594 C 182.683594 312.308594 152.773438 356.730469 148.441406 357.417969 C 143.078125 358.3125 87.929688 292.503906 87.929688 292.503906 C 87.929688 292.503906 131.457031 234.605469 131.867188 231.71875 C 133.246094 222.710938 134.277344 213.632812 135.101562 204.554688 C 135.996094 194.449219 134.621094 172.789062 138.746094 163.710938 C 143.902344 152.503906 162.195312 139.503906 170.71875 129.949219 C 173.472656 126.921875 188.324219 106.636719 190.59375 107.945312 C 196.644531 111.382812 191.832031 128.230469 190.179688 132.765625 C 187.085938 141.292969 180.210938 147.964844 177.183594 156.351562 C 176.152344 159.242188 171.0625 171.136719 171.0625 171.136719 L 172.785156 263.484375 C 172.921875 266.03125 175.535156 267.957031 178.078125 268.023438 Z M 289.75 130.773438 C 289.886719 130.839844 289.957031 130.839844 289.75 130.773438 Z M 287.273438 210.46875 C 282.046875 208.613281 268.777344 208.476562 261.28125 213.425781 C 259.289062 214.734375 243.609375 229.171875 245.398438 232.199219 C 246.085938 233.503906 250.691406 235.84375 255.847656 234.878906 C 261.214844 233.847656 267.195312 229.378906 269.671875 228.484375 C 272.007812 227.660156 279.777344 228.484375 279.777344 228.484375 L 280.191406 243.613281 C 280.191406 243.613281 296.765625 228.210938 295.664062 223.671875 C 293.53125 214.59375 292.15625 212.121094 287.273438 210.46875 Z M 303.433594 53.894531 C 301.027344 54.238281 275.308594 83.601562 275.308594 83.601562 C 275.308594 83.601562 276.203125 114.542969 276.410156 114.75 C 283.148438 106.773438 299.515625 79.886719 304.945312 65.308594 C 308.660156 55.40625 304.257812 53.828125 303.433594 53.894531 Z M 295.386719 170.792969 C 295.59375 170.519531 292.363281 167.355469 292.085938 167.21875 C 290.507812 166.1875 288.855469 165.085938 287 164.671875 C 287.550781 163.984375 288.03125 163.296875 288.511719 162.679688 C 295.59375 153.257812 299.101562 142.53125 291.332031 132.285156 L 289.75 130.703125 C 289.40625 130.566406 288.445312 130.085938 288.03125 129.949219 C 286.863281 129.605469 285.761719 129.261719 284.59375 128.917969 C 281.359375 127.953125 277.097656 126.441406 273.796875 127.746094 C 270.425781 129.121094 267.882812 132.628906 265.40625 135.171875 C 260.042969 140.8125 254.40625 146.382812 247.871094 150.714844 C 244.503906 152.914062 238.519531 154.839844 241.410156 159.929688 C 246.773438 169.417969 258.53125 164.535156 265.40625 160.480469 C 267.609375 159.171875 270.976562 155.597656 273.726562 155.734375 C 274.621094 155.804688 277.441406 154.496094 277.441406 154.496094 C 277.441406 154.496094 277.992188 168.800781 278.058594 169.417969 C 276.960938 170.3125 274.484375 171.207031 273.453125 172.03125 C 267.058594 176.84375 260.59375 181.589844 254.472656 186.816406 C 252.894531 188.191406 245.605469 192.660156 246.980469 195.410156 C 250.898438 203.316406 263.480469 199.8125 269.328125 196.921875 C 272.628906 195.339844 274.828125 192.867188 278.542969 192.386719 C 278.609375 192.523438 278.953125 200.910156 278.953125 200.910156 C 278.953125 200.910156 284.109375 197.472656 284.9375 196.648438 C 288.855469 193.140625 297.039062 175.882812 295.9375 172.101562 Z M 295.386719 170.792969 " fill-opacity="1" fill-rule="nonzero"/></g><path fill="#31d2b6" d="M 268.363281 117.570312 C 268.433594 119.289062 266.988281 120.734375 265.203125 120.664062 L 198.15625 117.914062 C 196.574219 117.84375 195.335938 116.609375 195.269531 115.027344 L 193.960938 76.585938 C 193.894531 74.800781 195.335938 73.355469 197.125 73.492188 L 264.582031 77.136719 C 266.164062 77.207031 267.402344 78.511719 267.402344 80.09375 Z M 197.8125 217.757812 L 198.226562 229.242188 L 235.359375 230.617188 L 234.328125 219.066406 Z M 197.8125 217.757812 " fill-opacity="1" fill-rule="evenodd"/><path fill="#000000" d="M 232.882812 104.4375 C 231.644531 104.023438 229.996094 104.09375 228.757812 104.230469 L 228.207031 104.300781 C 227.449219 104.367188 226.695312 104.4375 225.9375 104.503906 C 223.597656 104.710938 221.125 104.917969 218.992188 104.4375 C 218.921875 104.4375 218.921875 104.4375 218.855469 104.367188 C 219.128906 103.886719 219.199219 103.265625 218.992188 102.71875 C 218.785156 102.097656 218.234375 101.617188 217.617188 101.480469 C 216.859375 101.34375 216.242188 101.617188 215.828125 102.167969 C 215.417969 102.71875 215.417969 103.542969 215.761719 104.230469 C 215.554688 104.300781 215.347656 104.300781 215.140625 104.300781 C 214.523438 104.300781 213.972656 104.160156 213.285156 103.957031 C 212.734375 103.816406 212.183594 103.613281 211.566406 103.542969 C 210.808594 103.472656 210.121094 103.472656 209.433594 103.542969 C 208.402344 103.613281 207.507812 103.613281 206.613281 103.335938 C 206.546875 103.335938 206.476562 103.265625 206.339844 103.265625 C 206.339844 103.199219 206.410156 103.199219 206.410156 103.128906 C 206.683594 102.578125 206.890625 101.753906 206.546875 101.203125 C 206.339844 100.859375 205.996094 100.722656 205.652344 100.722656 C 205.238281 100.722656 204.828125 100.929688 204.550781 101.273438 C 204.140625 101.824219 204 102.578125 204.070312 103.0625 C 204.070312 103.199219 204.140625 103.40625 204.207031 103.542969 C 203.933594 103.886719 203.589844 104.230469 203.246094 104.367188 C 202.832031 104.574219 202.625 105.054688 202.832031 105.535156 C 203.039062 105.949219 203.519531 106.15625 204 105.949219 C 204.550781 105.675781 205.035156 105.261719 205.445312 104.78125 C 205.652344 104.847656 205.859375 104.988281 206.066406 105.054688 C 207.234375 105.46875 208.402344 105.398438 209.503906 105.332031 C 210.191406 105.332031 210.808594 105.261719 211.359375 105.332031 C 211.839844 105.398438 212.253906 105.535156 212.734375 105.675781 C 213.492188 105.878906 214.246094 106.15625 215.140625 106.085938 C 215.761719 106.085938 216.449219 105.949219 217.136719 105.675781 C 217.546875 105.878906 217.960938 106.019531 218.441406 106.15625 C 219.542969 106.429688 220.710938 106.5 221.878906 106.5 C 223.253906 106.5 224.632812 106.363281 225.9375 106.222656 C 226.695312 106.15625 227.449219 106.085938 228.136719 106.019531 C 228.34375 106.019531 228.550781 106.019531 228.757812 105.949219 C 229.925781 105.878906 231.300781 105.742188 232.195312 106.085938 C 232.605469 106.222656 233.15625 106.019531 233.296875 105.605469 C 233.570312 105.054688 233.296875 104.574219 232.882812 104.4375 Z M 217.34375 103.472656 C 217.273438 103.472656 217.273438 103.40625 217.203125 103.40625 C 217.203125 103.265625 217.203125 103.128906 217.203125 103.128906 C 217.203125 103.128906 217.203125 103.128906 217.273438 103.128906 C 217.34375 103.128906 217.34375 103.128906 217.410156 103.199219 C 217.410156 103.265625 217.410156 103.335938 217.34375 103.472656 Z M 202.765625 87.382812 C 202.558594 87.109375 202.558594 86.695312 202.765625 86.421875 C 202.96875 86.007812 203.519531 85.871094 203.933594 86.078125 C 204.140625 86.078125 204.277344 86.007812 204.484375 86.078125 C 205.101562 86.144531 205.789062 86.144531 206.410156 86.214844 L 208.332031 86.351562 C 209.570312 86.421875 210.742188 86.488281 211.976562 86.625 C 212.460938 86.695312 212.804688 87.039062 212.734375 87.519531 C 212.667969 87.933594 212.320312 88.277344 211.910156 88.277344 L 211.839844 88.277344 C 210.671875 88.207031 209.433594 88.070312 208.265625 88.003906 L 206.339844 87.863281 C 205.722656 87.796875 205.035156 87.796875 204.414062 87.726562 C 204.34375 87.726562 204.277344 87.726562 204.140625 87.726562 C 203.726562 87.863281 203.109375 87.933594 202.765625 87.382812 Z M 203.863281 92.472656 C 203.3125 92.472656 202.832031 92.402344 202.351562 92.402344 C 201.59375 92.402344 201.046875 92.335938 200.839844 91.851562 L 201.59375 91.507812 L 201.734375 90.683594 C 201.871094 90.683594 202.351562 90.753906 202.421875 90.753906 C 202.902344 90.820312 203.453125 90.820312 203.933594 90.820312 C 204.757812 90.890625 205.652344 90.890625 206.476562 90.957031 C 207.164062 90.957031 207.851562 91.027344 208.539062 91.027344 C 213.148438 91.234375 217.617188 91.300781 222.980469 91.300781 C 223.460938 91.300781 223.804688 91.714844 223.804688 92.128906 C 223.804688 92.609375 223.394531 92.953125 222.980469 92.953125 C 217.617188 92.953125 213.078125 92.882812 208.472656 92.679688 C 207.785156 92.679688 207.097656 92.609375 206.410156 92.609375 C 205.582031 92.539062 204.757812 92.539062 203.863281 92.472656 Z M 174.777344 168.25 C 174.707031 168.386719 167.144531 179.386719 165.769531 186.265625 C 165.699219 186.675781 165.355469 186.953125 164.945312 186.953125 C 164.875 186.953125 164.808594 186.953125 164.808594 186.953125 C 164.324219 186.882812 164.050781 186.402344 164.117188 185.921875 C 165.5625 178.699219 173.128906 167.699219 173.402344 167.285156 C 173.675781 166.875 174.226562 166.804688 174.570312 167.078125 C 174.984375 167.355469 175.050781 167.90625 174.777344 168.25 Z M 181.105469 263.074219 C 181.105469 263.28125 181.105469 263.625 181.105469 263.828125 C 181.105469 264.242188 181.171875 264.65625 181.105469 264.929688 C 181.035156 266.441406 180.828125 268.367188 180.417969 270.363281 C 179.453125 275.105469 175.738281 281.160156 170.789062 282.878906 C 170.71875 282.878906 170.582031 282.945312 170.515625 282.945312 C 170.171875 282.945312 169.828125 282.738281 169.6875 282.394531 C 169.550781 281.984375 169.757812 281.433594 170.238281 281.296875 C 174.433594 279.78125 177.871094 274.417969 178.765625 270.019531 C 179.109375 268.164062 179.316406 266.238281 179.382812 264.792969 C 179.382812 264.585938 179.382812 264.242188 179.382812 263.898438 C 179.316406 262.59375 179.316406 261.835938 180.070312 261.5625 C 180.210938 261.492188 180.761719 261.355469 181.171875 261.972656 C 181.449219 262.316406 181.378906 262.730469 181.105469 263.074219 Z M 192.519531 111.105469 C 191.554688 119.703125 186.949219 128.367188 180.210938 134.417969 C 178.765625 135.722656 177.804688 136.136719 176.839844 136.136719 C 176.015625 136.136719 175.121094 135.792969 173.953125 135.3125 C 173.539062 135.105469 173.128906 134.96875 172.578125 134.761719 C 171.957031 134.484375 171.203125 134.210938 170.445312 133.9375 C 169.207031 133.453125 168.65625 133.316406 168.863281 132.5625 C 169 132.148438 169.414062 131.875 169.828125 131.941406 C 169.964844 131.941406 170.101562 132.011719 170.171875 132.078125 C 170.375 132.148438 170.859375 132.355469 170.996094 132.355469 C 171.820312 132.628906 172.578125 132.972656 173.265625 133.179688 C 173.816406 133.386719 174.296875 133.59375 174.707031 133.796875 C 176.910156 134.761719 177.253906 134.898438 179.179688 133.179688 C 185.574219 127.402344 189.972656 119.152344 190.9375 110.96875 C 191.003906 110.488281 191.417969 110.144531 191.898438 110.210938 C 192.242188 110.210938 192.585938 110.625 192.519531 111.105469 Z M 288.238281 151.882812 C 284.867188 153.328125 276.960938 156.285156 273.726562 156.285156 C 273.660156 156.285156 273.523438 156.285156 273.453125 156.285156 C 273.246094 156.285156 271.320312 155.597656 271.320312 155.597656 C 271.320312 155.113281 271.320312 155.113281 272.628906 154.222656 C 273.109375 153.878906 273.589844 153.601562 273.660156 153.535156 C 274.554688 152.777344 275.445312 152.019531 276.339844 151.058594 C 278.816406 148.582031 280.742188 145.902344 282.390625 142.875 C 282.597656 142.460938 283.148438 142.324219 283.5625 142.53125 C 283.972656 142.738281 284.109375 143.289062 283.90625 143.699219 C 282.1875 146.863281 280.121094 149.683594 277.578125 152.296875 C 276.824219 153.050781 276.066406 153.738281 275.308594 154.425781 C 278.472656 153.878906 284.042969 151.882812 287.617188 150.300781 C 288.03125 150.09375 288.582031 150.300781 288.71875 150.714844 C 288.855469 151.125 288.648438 151.675781 288.238281 151.882812 Z M 249.386719 160.410156 C 246.703125 160.410156 244.160156 159.585938 241.960938 157.933594 C 241.617188 157.660156 241.546875 157.109375 241.820312 156.765625 C 242.097656 156.421875 242.648438 156.351562 242.992188 156.628906 C 245.464844 158.484375 248.285156 159.171875 251.449219 158.621094 C 256.8125 157.660156 261.695312 153.394531 264.101562 149.613281 C 264.167969 149.476562 264.167969 149.476562 264.167969 149.476562 C 263.964844 148.789062 261.558594 148.03125 260.527344 147.6875 C 259.90625 147.480469 259.425781 147.34375 259.082031 147.136719 C 258.394531 146.792969 257.773438 146.519531 257.226562 146.175781 C 257.085938 146.105469 256.882812 145.902344 256.742188 145.761719 L 256.675781 145.695312 C 256.398438 145.625 256.125 145.417969 256.054688 145.144531 C 255.847656 144.664062 256.125 144.25 256.398438 144.113281 C 256.949219 143.699219 257.5 144.183594 257.914062 144.527344 C 258.050781 144.59375 258.117188 144.730469 258.1875 144.800781 C 258.738281 145.144531 259.289062 145.417969 259.835938 145.695312 C 260.113281 145.832031 260.59375 145.96875 261.074219 146.175781 C 263.34375 146.933594 265.339844 147.6875 265.820312 149.0625 C 265.957031 149.476562 266.027344 150.027344 265.613281 150.714844 C 262.382812 155.734375 256.949219 159.585938 251.792969 160.480469 C 250.96875 160.339844 250.210938 160.410156 249.386719 160.410156 Z M 279.710938 168.660156 C 278.953125 169.074219 278.265625 169.554688 277.511719 170.105469 C 277.371094 170.242188 276.824219 170.722656 276.683594 170.863281 C 276.476562 171.066406 276.203125 171.136719 276.066406 171.136719 C 275.929688 171.136719 275.789062 171.136719 275.722656 171.066406 C 275.722656 171.066406 276.476562 168.800781 276.546875 168.730469 C 277.371094 168.113281 278.199219 167.5625 278.953125 167.148438 C 280.535156 166.324219 283.628906 164.8125 286.722656 164.398438 C 287.207031 164.328125 287.617188 164.671875 287.6875 165.15625 C 287.753906 165.636719 287.410156 166.046875 287 166.117188 C 284.867188 166.390625 282.253906 167.355469 279.710938 168.660156 Z M 290.78125 183.375 C 288.855469 185.988281 286.3125 187.984375 283.90625 189.839844 L 283.148438 190.390625 C 282.597656 190.804688 282.046875 191.214844 281.429688 191.628906 C 280.949219 191.972656 279.503906 192.730469 279.230469 192.933594 C 279.089844 193.003906 278.953125 193.003906 278.816406 193.003906 C 278.542969 193.003906 278.199219 192.867188 278.058594 192.589844 C 277.855469 192.179688 277.992188 191.628906 278.402344 191.421875 C 279.023438 191.078125 280.121094 190.460938 280.398438 190.253906 C 280.949219 189.839844 281.5 189.429688 282.117188 189.015625 L 282.875 188.464844 C 285.210938 186.746094 287.550781 184.820312 289.40625 182.34375 C 289.679688 182 290.230469 181.863281 290.574219 182.140625 C 290.988281 182.484375 291.054688 182.964844 290.78125 183.375 Z M 272.285156 186.882812 C 272.351562 188.671875 270.359375 190.527344 268.226562 192.246094 C 268.019531 192.386719 267.882812 192.523438 267.746094 192.660156 C 264.925781 195.066406 259.355469 197.679688 254.40625 197.679688 C 251.859375 197.679688 249.386719 196.992188 247.527344 195.273438 C 247.183594 194.929688 247.183594 194.378906 247.460938 194.035156 C 247.804688 193.691406 248.355469 193.691406 248.699219 193.964844 C 253.03125 198.023438 262.246094 195.136719 266.644531 191.351562 C 266.78125 191.214844 266.988281 191.078125 267.125 190.941406 C 268.089844 190.183594 270.566406 188.121094 270.566406 186.953125 C 270.566406 186.265625 267.953125 184.753906 267.058594 184.269531 C 266.578125 183.996094 266.09375 183.71875 265.820312 183.515625 L 265.546875 183.308594 C 264.925781 182.894531 264.308594 182.414062 263.6875 181.933594 C 263.480469 181.796875 263.34375 181.589844 263.207031 181.382812 C 263.207031 181.382812 263.207031 181.3125 263.136719 181.3125 C 262.726562 181.246094 262.382812 180.765625 262.449219 180.351562 C 262.519531 179.9375 262.792969 179.664062 263.136719 179.59375 C 263.757812 179.457031 264.167969 179.9375 264.515625 180.351562 C 264.582031 180.488281 264.71875 180.558594 264.789062 180.625 C 265.339844 181.039062 265.957031 181.519531 266.578125 181.933594 L 266.851562 182.140625 C 267.058594 182.277344 267.46875 182.550781 267.953125 182.828125 C 270.289062 184.132812 272.214844 185.371094 272.285156 186.882812 Z M 266.851562 221.746094 C 266.300781 223.191406 264.925781 224.496094 263.894531 225.527344 L 263.414062 225.941406 C 259.699219 229.515625 253.582031 233.644531 248.285156 233.644531 C 248.148438 233.644531 247.941406 233.644531 247.804688 233.644531 C 247.324219 233.644531 246.980469 233.230469 246.980469 232.75 C 246.980469 232.269531 247.390625 231.925781 247.871094 231.925781 C 252.410156 232.128906 258.324219 228.484375 262.246094 224.703125 L 262.726562 224.292969 C 263.6875 223.398438 264.859375 222.226562 265.269531 221.195312 C 265.40625 220.921875 264.925781 220.164062 262.3125 218.101562 C 261.902344 217.757812 261.558594 217.484375 261.28125 217.277344 C 261.28125 217.277344 261.144531 217.140625 261.007812 216.933594 C 260.871094 216.726562 260.386719 216.246094 260.179688 216.109375 C 259.976562 216.039062 259.769531 215.832031 259.699219 215.625 C 259.5625 215.214844 259.769531 214.664062 260.25 214.527344 C 260.871094 214.320312 261.28125 214.734375 262.246094 215.832031 C 262.3125 215.972656 262.449219 216.039062 262.449219 216.039062 C 262.65625 216.175781 262.933594 216.453125 263.34375 216.726562 C 265.132812 218.101562 267.539062 219.960938 266.851562 221.746094 Z M 289.132812 222.847656 C 289.476562 223.121094 289.542969 223.671875 289.269531 224.015625 C 288.03125 225.527344 286.65625 227.042969 284.523438 228.074219 C 283.972656 228.347656 283.355469 228.625 282.53125 228.898438 C 282.460938 228.898438 281.980469 229.035156 281.5 229.171875 C 280.949219 229.3125 280.398438 229.449219 280.191406 229.515625 C 280.121094 229.515625 280.054688 229.585938 279.917969 229.585938 C 279.917969 229.585938 279.917969 229.585938 279.847656 229.585938 C 279.433594 229.585938 279.089844 229.3125 279.023438 228.898438 C 278.886719 228.140625 279.160156 228.074219 281.015625 227.589844 C 281.5 227.453125 281.910156 227.386719 281.980469 227.316406 C 282.667969 227.042969 283.285156 226.835938 283.765625 226.628906 C 285.554688 225.804688 286.792969 224.429688 287.960938 223.054688 C 288.238281 222.570312 288.789062 222.503906 289.132812 222.847656 Z M 289.132812 222.847656 " fill-opacity="1" fill-rule="nonzero"/><path fill="#eff9f4" d="M 261.214844 108.699219 C 259.90625 109.59375 251.929688 109.9375 250.003906 108.632812 C 248.078125 107.324219 247.871094 102.304688 249.730469 101 C 251.515625 99.691406 258.945312 99.417969 260.871094 100.722656 C 262.792969 102.03125 262.589844 107.738281 261.214844 108.699219 Z M 261.214844 108.699219 " fill-opacity="1" fill-rule="evenodd"/></svg>